<svg width="671" viewBox="0 0 671 505" fill="none" xmlns="http://www.w3.org/2000/svg" preserveAspectRatio="none">
<path opacity="0.2" d="M593.851 377.73C593.135 377.78 590.409 376.992 589.199 376.875C590.799 375.462 596.432 377.546 593.851 377.73ZM447.136 473.512C448.251 473.312 449.368 473.112 450.486 472.911C447.569 472.094 443.551 471.63 440.904 470.73C440.471 470.581 441.846 469.653 440.804 469.399C439.761 469.145 439.661 470.757 438.1 470.63C436.299 470.475 428.9 467.895 425.939 467.334C415.405 465.359 404.808 464.129 394.799 461.342C405.547 462.383 395.192 458.989 392.18 458.871C391.437 458.831 391.241 461.853 380.406 458.748C373.63 456.784 380.844 454.017 369.018 453.588C377.118 458.426 368.527 456.327 361.738 454.897C360.535 454.649 351.346 452.1 347.143 451.252C345.659 450.954 343.065 451.95 341.115 451.533C339.774 451.245 338.962 450.178 336.982 449.752C327.746 447.756 318.937 445.669 310.108 443.145C316.404 440.6 306.289 440.422 305.87 440.112C303.922 438.497 314.018 440.736 310.219 439.072C304.642 437.791 299.14 436.502 293.712 435.205C298.019 436.845 286.986 436.926 285.474 435.156C285.557 438.889 261.562 425.435 257.452 425.42C256.598 425.427 261.292 428.626 249.442 424.343C248.168 423.877 248.961 422.996 248.253 422.892C247.811 422.824 244.468 425.379 242.28 422.768C241.49 421.807 248.491 421.614 234.187 418.213C238.604 423.21 214.625 414.111 210.415 411.742C211.191 412.485 212.033 413.248 212.755 413.971C208.578 411.294 207.356 412.119 206.352 411.721C202.269 410.1 197.045 407.08 193.283 405.89C188.884 404.494 188.163 406.522 183.425 403.95C184.469 404.827 185.483 405.689 186.523 406.558C183.208 405.269 179.388 403.778 175.818 402.35C185.259 402.756 174.028 401.561 173.358 401.367C172.254 401.069 174.19 400.544 172.358 400.02C172.167 399.974 172.044 401.102 169.27 400.196C163.502 398.297 164.91 397.345 162.554 396.461C162.341 396.385 162.721 397.598 158.623 396.257C145.032 391.697 159.172 395.675 159.499 395.639C160.225 395.717 157.272 390.187 167.673 395.728C164.146 393.892 164.454 392.045 164.057 391.845C163.675 391.665 157.429 389.506 156.884 389.35C153.369 388.623 155.799 390.931 155.076 390.885C154.454 390.843 147.126 386.129 143.887 388.836C141.504 384.087 147.175 386.827 153.801 388.901C154.985 388.617 148.255 385.152 147.915 385.004C139.087 381.352 142.881 386.003 140.247 386.879C138.865 387.333 136.079 384.033 138.359 387.779C130.361 384.655 135.738 385.34 135.309 384.921C134.667 384.296 131.683 383.797 131.277 383.511C130.793 383.141 133.031 383.157 131.022 381.935C130.688 381.739 126.637 381.614 130.776 384.234C124.944 381.425 124.93 382.816 124.036 379.546C118.009 382.234 122.389 375.574 120.972 374.614C117.23 372.061 116.758 376.122 116.461 376.194C114.596 376.698 103.597 369.837 100.44 368.783C102.749 366.853 109.945 373.549 111.742 373.789C114.987 374.351 113.115 373.067 111.183 371.498C109.103 369.858 106.844 367.858 109.851 367.391C107.563 367.335 105.287 367.27 103.022 367.196C100.749 363.47 105.811 365.039 96.6904 361.149C94.3316 362.115 103.018 364.146 100.78 364.698C99.4348 365.027 94.2751 362.499 93.9631 362.861C93.5811 363.313 98.4849 365.159 97.3542 365.551C94.997 366.558 78.6306 355.329 92.265 361.742C88.8447 359.902 88.4547 355.34 84.7486 354.548C82.3147 353.968 91.2455 365.413 74.3932 354.192C74.9426 352.461 81.5256 357.905 81.8265 357.895C82.1926 357.881 82.9033 353.628 82.7827 353.325C82.5467 352.805 77.7534 350.414 72.9457 347.568C67.5312 344.361 62.1521 340.608 60.928 338.46C61.2661 341.765 46.913 328.325 44.9384 327.192C44.3729 326.958 45.0629 329.454 44.499 329.162C41.2267 327.637 34.2698 317.495 30.7973 313.259C26.8342 308.577 26.3334 309.74 26.0989 309.484C24.165 306.945 26.4025 308.426 25.2028 306.896C24.2977 305.743 20.8279 301.1 17.8918 296.163C15.0206 291.525 11.9758 284.894 11.7435 284.489C11.5424 284.154 11.9139 288.548 9.46375 283.548C9.26007 283.107 9.58533 282.877 9.14642 280.858C8.74567 278.676 7.44006 275.576 5.06451 265.979C2.802 254.481 2.92816 258.46 3.17169 264.421C3.49487 270.353 5.03473 277.62 2.83844 273.228C1.70227 257.804 0.279785 258.373 -0.00012207 254.043C-0.0160522 252.648 1.51709 240.913 4.59747 229.045C2.70605 237.617 2.23071 246.859 3.11969 255.172C2.47998 247.034 4.65948 229.701 7.58374 223.715C8.85437 220.779 9.46301 223.718 11.9908 217.494C12.7416 216.372 10.4075 208.681 6.1225 226.864C4.23682 227.798 7.77856 219.616 9.12836 215.864C9.31299 215.324 7.99042 211.923 11.8159 208.18C12.2642 207.751 12.5402 211.272 14.1283 210.88C15.8282 210.578 18.1044 205.889 24.7775 193.742C25.2269 192.945 22.5192 194.742 22.937 193.951C23.1964 193.343 28.1996 188.337 28.6699 187.755C29.1214 187.082 26.0522 188.841 26.5626 188.025C29.2115 183.798 35.6311 183.143 29.308 188.979C31.8252 187.085 34.0453 185.656 36.4476 184.169C32.2507 183.92 39.1306 180.605 42.0498 178.297C59.6091 164.932 46.5493 171.96 49.0681 168.926C53.121 164.415 52.0337 171.031 58.5926 165.348C58.9006 165.084 56.5381 165.793 56.3635 165.429C56.0064 165.202 58.8241 163.08 66.7113 159.709C64.3237 161.025 62.3999 162.14 59.6668 163.775C62.8424 165.244 68.0338 159.065 68.7078 158.721C74.8963 155.304 70.972 158.2 80.0104 152.58C80.731 152.124 82.6925 152.065 84.236 151.052C90.711 146.811 74.6412 154.063 73.2542 153.581C73.2314 152.771 90.9314 145.592 91.7329 145.75C94.7565 145.875 83.8096 149.361 86.4138 149.972C86.8533 150.08 93.3179 147.344 100.522 144.749C106.996 142.372 114.398 140.012 117.008 139.56C123.183 138.47 126.343 141.702 125.277 137.431C127.91 141.185 128.479 137.99 129.183 137.835C137.699 136.044 137.742 136.095 145.183 133.929C145.708 133.779 146.24 133.773 146.738 133.823C147.677 133.962 148.485 134.355 148.802 134.128C149.07 133.93 148.203 132.691 149.564 131.937C151.505 130.896 163.729 129.54 164.733 130.091C165.789 130.64 159.842 131.581 161.177 132.575C165.518 131.695 169.207 130.502 173.749 129.556C175.58 129.179 174.854 130.269 175.641 130.098C175.991 130.028 181.999 127.771 181.649 127.515C180.876 126.939 161.87 131.982 166.551 129.266C167.438 128.748 171.218 129.962 170.137 127.653C187.591 124.087 204.226 120.519 221.247 116.575C211.797 121.024 200.98 122.073 190.603 124.822C189.257 125.179 184.542 126.088 185.405 127.175C193.786 125.467 204.958 121.971 213.043 120.707C213.307 120.667 212.65 122.009 213.657 121.932C215.662 121.76 221.289 118.382 222.404 118.571C222.611 118.63 219.552 120.989 220.842 121.629C224.161 123.269 223.445 117.873 225.732 117.324C227.431 116.934 240.069 116.173 242.562 113.742C245.237 111.17 233.521 115.21 233.981 113.581C241.871 109.909 249.915 109.219 257.599 106.761C257.729 106.717 256.264 105.977 257.891 105.331C260.71 104.209 261.908 105.515 263.37 105.342C264.902 105.169 270.218 103.304 271.136 103.626C271.252 103.671 270.617 105.525 270.461 105.619C268.256 106.981 266.828 105.263 266.623 105.299C265.824 105.46 265.285 106.447 264.555 106.618C263.352 106.899 262.492 106.397 260.897 106.807C259.793 107.087 261.246 108.114 260.174 108.366C259.785 108.454 254.665 106.633 255.175 109.88C255.541 110.975 289.723 101.808 292.861 99.7094C289.891 100.29 286.859 100.874 283.764 101.463C290.14 100.413 296.098 95.635 297.81 99.1218C319.447 92.0604 340.377 84.2881 359.553 75.256C363.088 73.8682 362.301 77.0643 367.493 73.5809C365.666 73.6426 363.941 73.6368 362.184 73.6355C365.252 72.8189 377.965 67.1127 379.377 65.5692C379.568 65.3733 378.785 63.2542 381.503 61.3619C383.876 59.6904 385.089 60.8954 386.578 60.3177C387.834 59.8199 388.785 58.6532 389.148 58.5203C389.429 58.4203 390.1 59.2076 390.775 58.965C392.888 58.1851 389.766 56.8284 393.453 58.3058C393.068 58.7314 392.734 59.1184 392.368 59.5247C394.814 58.4269 398.716 57.4442 395.902 60.3872C395.408 60.8942 395.322 59.7376 394.899 60.0381C378.155 71.375 392.982 64.1559 397.657 58.7655C399.99 58.9894 407.173 52.1004 407.532 52.076C408.149 52.1004 407.638 54.0911 409.971 53.4267C410.533 53.4129 419.479 43.7122 417.425 48.4016C417.018 49.4147 412.043 53.4395 410.935 54.4236C415.812 54.4274 418.843 45.2074 419.459 44.6546C422.494 42.2247 416.247 51.8291 422.568 45.8449C427.369 41.0927 421.542 44.3142 422.629 41.8235C423.229 40.5045 429.994 36.0911 427.556 34.3197C428.997 32.046 429.234 34.2475 429.53 34.063C429.807 33.904 432.457 29.0954 434.048 27.9947C434.244 27.8648 435.058 29.352 435.296 29.2457C435.737 29.0434 438.773 24.4122 438.808 24.1233C438.818 23.955 436.936 24.2408 436.995 23.6028C437.057 22.89 440.527 18.5968 440.402 18.0949C440.165 17.4329 436.516 23.1785 435.955 21.3603C438.058 19.1158 440.265 14.2404 440.535 11.7371C440.51 12.3791 438.72 15.0044 438.003 15.8018C436.469 14.142 440.438 8.5563 440.523 11.4829C440.617 9.71182 439.617 10.2643 439.379 9.05746C439.321 8.74905 440.533 6.94406 440.467 6.37146C440.433 6.28622 438.454 7.64746 438.345 7.01904C438.128 5.9104 442.167 0.498352 442.705 0.118591C444.119 -0.829742 441.454 4.19406 441.977 5.07983C442.045 5.22983 446.277 2.41827 446.465 2.43848C448.026 3.23215 443.964 6.80801 445.597 7.20892C446.605 6.35156 447.625 5.48038 448.658 4.5965C446.974 9.69885 441.277 16.4226 441.496 19.2037C444.98 13.3615 449.504 7.01288 452.812 9.37228C454.196 10.3701 453.192 13.5277 453.622 13.6732C455.147 14.2029 456.319 9.62418 456.493 9.52515C456.649 9.46896 456.76 9.47162 456.833 9.52362C456.833 9.52365 456.833 9.52368 456.833 9.52368C457.552 10.0739 454.473 15.567 454.652 16.0384C454.958 16.8851 459.019 16.3921 459.568 16.78C459.619 16.94 457.683 20.9405 459.493 20.4042C461.319 19.8629 463.565 16.7271 463.752 16.6784C464.744 16.497 461.391 22.3713 461.624 22.7714C461.736 22.9796 464.871 20.7824 465.238 20.9113C465.594 21.0554 464.689 23.7614 465.037 25.3234C465.294 26.4852 467.19 24.961 467.066 25.376C466.961 25.6841 463.348 30.7961 463.298 31.1312C463.221 31.6365 464.922 31.0472 465.014 31.3723C465.148 31.8387 463.676 33.264 464.145 33.2741C464.492 33.2939 471.969 28.9574 472.74 29.5416C474.031 30.5728 466.133 35.206 475.922 32.6021C475.988 32.583 476.703 30.7627 476.763 30.7469C478.414 30.4841 476.436 36.4888 480.432 30.2609C474.201 42.7241 481.474 33.0851 482.573 36.3494C482.991 37.6111 480.279 42.2318 480.389 42.3516C481.799 42.7021 481.92 40.7054 482.797 40.6133C483.288 40.5623 481.69 45.3148 483.072 44.9681C483.796 44.7766 486.578 40.5246 486.774 40.407C488.651 39.2708 488.011 41.8323 488.777 41.8314C489.292 41.828 491.069 39.3609 491.175 39.3438C491.38 39.3237 490.388 43.6816 490.373 44.7401C490.369 45.5432 492.38 43.9329 492.279 44.4243C491.673 47.3685 485.741 50.4879 492.539 48.2618C492.955 48.1267 494.106 46.3055 494.184 46.2847C495.939 45.8953 493.75 49.192 494.147 50.35C494.842 52.3335 497.354 47.107 495.599 51.6901C498.57 49.4131 499.669 47.7581 501.749 44.2758C495.946 54.0193 497.161 59.9939 504.412 49.4909C502.053 52.7215 504.337 53.8182 503.678 54.831C503.279 55.4442 497.767 58.9474 503.916 59.8972C504.694 60.0038 506.059 56.5294 506.57 58.2779C501.202 65.2573 507.223 58.929 507.364 59.0512C510.215 60.803 494.838 77.6505 492.197 81.2834C489.561 85.3233 488.608 90.4319 487.91 91.2466C485.557 93.974 486.52 90.8513 485.628 91.1442C484.797 91.4596 479.699 100.778 479.142 101.078C477.317 102.173 477.643 99.5921 477.436 99.6935C475.159 100.851 465.894 111.449 462.65 113.623C463.377 114.365 469.358 109.103 466.727 113.645C463.698 118.848 460.497 115.652 460.275 115.599C440.404 132.432 418.892 144.963 397.807 155.315C399.139 157.378 412.238 148.67 412.672 148.702C415.489 149.487 391.68 161.479 388.594 161.734C391.009 161.191 393.393 160.642 395.745 160.087C393.345 164.269 383.242 164.992 378.49 168.319C376.89 169.431 380.672 168.947 380.628 169.042C379.092 170.863 375.562 171.476 377.395 169.153C373.095 172.456 373.044 170.842 369.45 172.203C369.259 172.275 371.241 172.653 368.534 174.25C367.297 174.998 359.891 177.939 359.209 179.221C358.92 179.769 364.318 182.234 363.429 178.64C372.123 177.095 365.377 176.067 368.492 174.903C369.009 174.702 368.526 177.157 376.086 172.952C375.863 177.073 366.043 178.104 364.59 179.141C361.813 181.249 375.382 177.86 376.91 174.043C376.878 177.18 378.03 174 380.995 172.85C384.232 171.589 383.185 172.976 384.898 172.231C389.594 170.175 386.893 169.155 391.592 169.035C385.467 165.601 397.801 165.375 401.714 165.083C396.677 167.845 392.031 170.31 386.941 172.884C387.334 173.036 387.753 173.175 388.171 173.315C386.804 173.878 385.543 174.387 384.211 174.922C384.306 174.569 384.4 174.216 384.494 173.864C378.502 178.496 375.882 177.286 375.327 177.501C368.281 180.183 359.84 183.52 352.793 186.144C351.732 186.531 353.036 188.063 344.689 189.552C342.082 189.999 343.913 187.807 341.197 189.009C339.001 193.957 337.999 190.985 336.945 191.351C333.902 192.417 332.31 193.989 332.027 194.097C328.395 195.507 322.994 197.149 318.853 198.652C318.779 198.692 321.322 199.129 318.504 199.675C317.346 199.922 307.775 197.618 300.833 201.508C302.865 201.244 304.88 200.981 306.878 200.717C304.479 200.995 289.216 206.984 293.444 207.137C295.955 207.266 300.74 202.332 302.345 205.171C296.794 205.989 268.613 215.653 266.101 215.505C265.76 215.49 267.405 213.957 266.937 213.95C266.615 213.939 259.881 216.055 259 215.88C258.418 215.795 261.129 214.394 260.815 214.093C260.44 213.926 252.386 215.656 252.215 217.04C254.089 216 259.738 214.932 257.122 216.778C256.785 217.011 254.621 216.73 254.207 217.02C250.398 219.7 262.877 215.923 265.06 215.315C257.314 219.19 244.342 220.645 235.32 224.077C231.336 223.99 240.402 221.056 235.986 221.274C226.787 221.728 234.035 223.319 233.801 223.522C231.913 225.138 222.947 221.386 224.016 225.697C220.6 225.865 221.476 225.07 217.045 226.772C217.689 226.929 218.379 227.075 219.066 227.221C214.713 230.967 202.613 227.222 203.266 226.55C205.119 224.741 211.1 225.408 211.548 225.245C212.3 224.982 212.792 220.23 221.701 222.156C224.09 218.446 209.05 223.202 215.43 219.492C211.155 220.929 190.845 223.654 188.669 225.508C188.38 225.753 190.602 228.329 185.544 227.939C183.139 227.752 188.524 226.455 187.343 226.026C185.877 225.495 178.103 227.029 168.398 229.198C155.184 232.071 140.843 236.844 136.906 238.261C136.48 238.403 136.346 237.463 135.929 237.608C135.286 237.833 133.923 238.658 132.469 239.476C130.819 240.36 129.11 241.234 127.887 241.459C133.272 241.323 124.007 244.865 122.068 245.536C118.934 246.534 118.285 245.045 116.756 245.342C110.607 246.564 105.875 253.816 101.797 252.382C102.969 253.773 101.528 254.247 99.9775 254.374C98.4025 254.508 96.6961 254.311 96.3601 254.677C95.7453 255.392 98.1896 256.151 99.1549 257.309C99.1142 257.277 101.626 254.052 101.835 250.345C101.878 249.788 100.807 250.51 100.897 249.628C100.909 249.554 101.971 249.403 102.022 248.636C102.113 245.589 101.569 245.86 101.083 245.879C100.568 245.998 99.9277 246.358 99.5638 246.31C99.1614 246.276 98.9806 246.326 98.9227 246.343C98.8813 246.377 98.8991 246.579 98.9331 246.951C98.9749 247.347 99.0238 247.928 99.0259 248.548C99.0437 249.794 98.8262 251.125 98.7427 251.619C97.6666 251.054 97.8867 249.238 97.9464 247.965C98.0012 246.624 98.3779 246.452 98.2206 246.789C98.2076 246.814 97.0389 247.336 97.0376 247.354C97.0377 247.354 97.0379 247.354 97.038 247.355C97.0269 247.444 97.3237 247.823 97.9474 248.238C98.5615 248.645 99.4401 248.982 99.8289 248.225C100.032 247.838 99.1436 246.494 98.9549 246.341C99.2394 246.273 100.509 245.607 100.569 245.591C100.891 245.443 100.832 245.73 100.936 246.409C101.023 247.069 101.318 248.119 101.627 248.645C101.771 248.888 102.456 248.274 102.486 248.307C102.952 249.186 100.712 250.605 103.506 249.679C103.047 251.593 102.202 250.876 101.484 250.004C100.797 249.18 100.182 248.075 99.4562 248.874C98.8994 249.481 100.366 251.878 104.069 254.935C107.368 257.656 112.171 260.267 112.946 259.236C112.837 259.499 112.858 259.949 113.119 260.636C113.517 262.068 118.486 265.288 119.74 265.531C119.945 265.557 121.285 263.448 121.484 263.555C121.981 263.863 127.366 269.674 130.69 269.895C129.5 268.775 128.361 267.667 127.275 266.573C135.218 271.425 134.588 270.067 132.132 267.773C131.999 267.685 131.915 267.525 131.791 267.438C129.955 265.698 127.761 263.681 127.836 263.493C127.734 262.697 142.118 270.643 138.335 271.08C137.691 271.112 131.547 266.332 134.006 269.684C134.398 270.263 139.131 272.404 139.284 272.684C140.26 274.655 129.72 270.482 130.085 272.647C133.124 272.549 135.923 275.143 138.731 276.197C140.002 276.675 140.898 275.734 141.055 275.793C143.423 276.697 141.562 277.185 142.323 277.556C142.717 277.752 148.561 277.646 145.938 280.62C163.165 286.047 151.096 280.225 142.153 275.674C145.558 275.929 151.05 279.506 153.989 280.573C155.014 280.945 155.065 279.54 156.694 280.047C159.705 281.031 175.945 289.994 179.81 291.907C177.033 291.223 177.238 292.832 179.295 293.597C181.363 294.362 180.381 291.921 180.855 291.903C181.294 291.885 190.741 296.712 192.595 297.162C184.788 294.761 185.925 296.732 192.348 299.451C191.256 299.451 190.17 299.451 189.088 299.451C193.277 300.535 199.88 305.362 202.344 305.606C202.716 305.638 201.923 304.083 202.133 304.101C204.155 304.343 210.277 307.885 210.745 307.623C211.117 307.405 208.647 305.449 209.856 305.378C210.106 305.361 212.267 307.846 215.131 308.461C216.193 308.69 215.958 307.426 216.234 307.457C218.543 307.715 216.689 309.043 220.454 310.056C223.223 310.795 225.837 309.774 229.461 311.655C217.81 305.158 227.842 309.688 233.393 310.812C234.288 310.993 234.167 308.837 239.004 311.482C226.924 311.283 241.481 314.357 244.474 315.349C244.621 315.409 244.26 316.69 245.611 317.15C245.726 317.186 245.836 316.278 247.122 316.621C259.434 319.871 251.386 318.364 253.426 319.944C254.293 320.618 260.706 321.286 262.375 321.762C262.756 321.875 262.305 322.714 263.789 323.13C266.416 323.862 269.068 323.624 270.841 324.073C271.01 324.118 270.755 325.582 273.992 326.045C274.913 326.179 276.054 325.971 274.919 325.193C271.191 322.645 262.011 322.383 257.709 319.578C253.701 317.011 267.567 321.18 268.373 321.394C268.645 321.471 265.671 321.335 268.436 322.323C270.856 323.181 275.838 322.013 279.086 323.541C279.332 323.657 281.489 326.532 281.33 326.616C281.183 326.671 276.819 325.882 277.259 326.66C277.31 326.75 280.005 327.523 280.231 328.072C280.504 328.741 280.127 334.411 280.674 334.714C282.077 335.477 281.452 333.979 282.398 334.344C284.408 335.123 291.304 338.782 292.079 336.996C290.888 336.544 289.703 336.091 288.524 335.638C295.338 337.356 292.687 335.753 293.741 335.676C294.887 335.59 294.135 337.137 296.403 337.933C296.957 338.131 306.538 340.385 306.497 339.632C301.072 339.331 303.53 337.83 303.301 337.73C302.467 337.361 300.94 338.159 299.68 337.787C290.866 335.158 300.291 335.848 298.327 334.811C297.651 334.458 295.955 335.025 295.666 334.891C294.724 334.457 295.061 333.19 294.378 333.109C292.784 332.918 294.067 335.203 293.921 335.262C292.23 335.997 287.316 333.106 291.168 332.099C289.385 330.839 288.485 333.132 287.192 331.744C284.63 328.994 289.126 330.798 290.485 330.845C295.355 331.011 296.442 332.298 303.126 333.799C305.397 334.303 308.385 333.878 309.455 334.098C310.112 334.236 315.369 339.927 317.225 333.706C319.525 334.964 322.358 340.124 325.01 340.607C327.389 341.037 327.221 338.623 327.46 338.593C327.827 338.544 330.617 339.447 331.663 339.378C332.888 339.294 332.538 338.302 334.423 338.412C339.176 338.7 338.3 340.89 338.747 341.16C343.424 344.142 341.999 340.351 343.196 340.374C344.26 340.4 359.019 345.314 362.51 345.257C361.085 345.402 359.664 345.545 358.246 345.688C360.248 347.67 363.304 345.944 362.744 348.504C364.193 344.502 368.438 348.405 369.953 348.643C370.547 348.736 370.665 348.023 371.404 348.163C374.208 348.687 380.203 350.648 381.799 350.633C388.567 350.559 372.793 344.285 371.435 343.789C374.112 344.475 388.887 346.861 382.615 343.35C381.641 342.808 379.379 344.232 378.78 344.171C374.734 343.742 378.21 342.8 377.937 342.572C377.47 342.198 374.52 343.2 373.886 342.852C373.641 342.731 375.587 341.607 371.653 340.66C374.024 339.691 384.144 343.254 385.684 343.236C386.221 343.227 383.75 339.42 392.271 344.492C392.228 344.18 392.185 343.868 392.142 343.556C397.303 344.581 402.526 345.6 407.812 346.614C407.097 347.157 403.857 347.856 407.637 348.374C409.818 348.672 408.549 346.848 408.754 346.847C410.777 346.913 443.655 354.242 450.614 355.375C452.828 355.757 459.08 355.733 459.56 355.801C462.336 356.219 472.102 358.886 474.146 359.09C475.412 359.215 474.461 357.747 475.564 358.015C476.589 358.265 475.29 359.267 475.588 359.375C478.001 360.297 497.973 362.318 502.108 364.206C499.472 363.396 485.004 363.258 485.076 364.141C485.114 364.269 488.408 365.819 489.208 365.502C490.23 366.767 494.786 364.311 496.776 365.312C497.005 365.425 495.731 367.038 499.483 368.043C500.777 368.388 504.467 367.61 507.689 369.782C512.687 369.922 539.823 376.889 541.635 375.186C541.704 375.093 538.1 373.82 540.738 373.446C544.25 372.948 540.666 375.983 544.52 376.926C545.087 377.071 556.086 378.481 556.496 378.318C560.14 376.869 550.671 374.529 550.853 374.319C551.273 373.794 559.295 374.72 559.606 374.908C559.894 375.099 552.95 376.686 560.952 376.938C560.102 376.482 559.253 376.025 558.405 375.568C562.189 375.544 562.26 377.416 563.138 377.668C565.876 378.46 569.328 376.174 573.315 380.283C574.37 381.373 572.23 382.071 572.359 382.23C573.606 383.671 575.941 380.695 577.737 383.458C577.876 383.664 572.59 384.348 581.433 385.702C580.858 385.376 580.285 385.05 579.712 384.724C581.16 384.416 589.722 385.393 590.907 385.693C594.267 386.562 591.037 387.792 594.505 388.103C592.633 385.483 603.163 386.73 602.279 388.616C604.105 386.351 612.813 389.568 617.081 390.232C619.763 390.65 625.433 390.342 626.279 390.588C627.307 390.89 626.75 392.54 628.597 393.182C629.203 393.376 634.761 392.882 639.351 395.294C640.238 395.759 641.813 398.902 639.976 399.384C636.828 400.21 631.55 397.123 631.389 398.831C631.217 400.661 638.918 400.617 640.936 401.13C650.241 403.504 644.525 404.7 644.686 405.319C645.124 406.826 650.325 407.476 650.527 407.633C651.352 408.321 647.514 408.955 647.344 409.815C647.122 410.936 651.874 413.644 650.682 413.873C648.97 414.197 644.592 411.881 644.292 411.923C640.353 412.509 645.197 415.819 646.468 417.293C646.851 417.746 645.027 418.162 645.373 418.326C650.661 420.82 647.024 414.813 650.653 415.665C653.895 416.423 649.44 417.579 649.554 417.69C649.701 417.815 653.62 418.429 654.159 419.118C654.415 419.464 643.764 421.444 643.995 422.995C647.286 423.101 650.59 423.204 653.906 423.305C653.904 425.291 649.392 423.233 648.883 423.37C647.853 423.644 650.446 424.993 650.248 425.594C650.133 425.978 646.747 426.954 649.562 427.914C650.53 428.245 652.795 427.154 656.251 429.028C643.376 429.15 651.987 431.4 652.269 432.141C652.544 432.88 646.29 433.71 653.659 434.389C653.479 438.228 653.342 435.569 651.171 435.962C648.515 436.444 654.231 438.476 645.054 436.292C645.339 438.141 652.849 439.007 653.234 439.2C653.56 439.374 651.775 440.029 652.332 440.403C658.938 444.764 654.296 442.56 656.056 445.021C656.209 445.242 662.809 446.925 657.663 446.582C648.3 445.954 644.819 442.919 642.551 448.098C649.034 451.348 657.824 448.955 659.927 449.166C663.146 449.496 659.681 450.165 660.036 450.524C660.16 450.642 662.939 450.908 662.966 451C664.402 455.366 650.647 449.477 646.132 449.597C647.243 450.37 648.355 451.143 649.47 451.916C647.844 451.727 646.222 451.537 644.602 451.347C652.15 453.605 644.808 451.852 642.448 454.921C641.917 455.611 647.148 455.004 641.1 456.311C645.292 457.358 643.843 457.857 647.835 457.431C647.555 458.753 638.662 459.102 635.173 459.324C647.037 462.441 640.789 456.631 650.946 460.605C653.114 459.21 648.05 458.872 648.497 458.653C650.092 457.866 653.331 459.875 657.952 456.982C658.705 456.506 656.053 454.399 660.3 455.033C660.768 455.106 663.297 456.939 663.247 457.042C662.736 458.157 660.101 457.376 659.928 457.846C659.763 458.292 662.802 458.402 662.797 458.531C662.702 459.998 660.218 458.764 660.537 459.269C661.221 460.364 671.642 464.887 657.645 462.154C669.576 462.017 659.337 460.743 654.719 460.782C653.54 460.79 653.133 461.621 651.447 461.707C649.276 461.82 646.86 461.076 645.748 461.091C644.552 461.111 650.943 464.05 641.389 462.157C646.006 464.854 655.004 463.818 659.703 465.881C669.189 470.048 652.374 468.52 650.629 468.569C650.158 468.585 651.55 469.961 651.234 469.993C650.707 470.039 641.38 468.255 640.336 469.101C639.285 469.948 643.773 469.513 643.931 470.563C644.028 471.272 632.582 470.97 638.627 472.253C642.791 473.137 650.97 471.427 651.911 474.542C645.62 473.969 639.372 473.387 633.169 472.797C636.395 474.372 639.637 475.946 642.896 477.517C635.862 476.945 630.044 474.872 623.289 475.576C638.534 481.313 617.813 477.744 617.48 478.133C617.436 478.394 623.16 482.15 624.102 482.82C618.669 483.227 601.141 481.314 610.755 486.33C609.038 485.263 604.343 486.64 604.381 486.799C604.706 488.467 614.513 488.795 612.739 490.006C610.675 491.414 608.43 488.798 605.606 488.582C591.155 487.479 593.856 496.323 579.854 492.926C580.092 493.262 580.33 493.599 580.568 493.935C565.548 491.236 549.483 488.279 534.255 485.342C527.861 486.909 511.578 485.798 503.505 484.123C501.893 483.796 494.259 481.119 493.717 480.784C492.698 480.151 498.751 481.024 496.172 479.721C495.604 479.454 482.531 476.588 483.236 478.158C484.673 478.582 489.412 478.686 490.113 479.15C495.066 482.508 454.582 473.285 452.287 473.765C453.108 474.392 453.932 475.018 454.757 475.645C452.205 474.935 449.664 474.225 447.136 473.512ZM583.258 380.233C584.944 379.039 588.483 380.662 590.74 380.593C593.856 380.491 599.85 375.794 596.808 380.939C592.265 380.708 587.748 380.473 583.258 380.233ZM517.575 367.435C520.466 368.714 517.594 371.358 515.341 369.664C515.092 369.473 513.673 365.709 517.575 367.435ZM548.979 374.174C548.846 374.194 546.279 373.694 546.198 373.631C544.085 372.03 551.82 373.545 548.979 374.174ZM396.963 347.041C400.286 347.635 398.499 344.366 396.211 345.045C396.067 345.089 396.745 347 396.963 347.041ZM399.291 347.629C401.316 350.65 407.606 346.793 403.364 346.399C402.951 346.363 399.197 347.483 399.291 347.629ZM528.192 370.493C527.686 371.386 524.617 370.394 523.318 369.938C523.501 369.077 526.852 370.377 528.192 370.493ZM449.784 356.456C449.606 357.199 460.052 359.195 460.998 358.354C459.212 358.446 450.135 355.835 449.784 356.456ZM421.981 351.902C422.22 352.087 425.918 352.652 425.949 351.974C424.336 350.745 420.899 351.07 421.981 351.902ZM367.92 339.885C367.684 340.001 369.478 344.802 363.544 340.52C362.675 339.893 366.373 339.625 366.067 339.395C365.416 338.936 364.882 338.667 364.433 338.535C367.565 338.915 370.809 339.502 371.062 339.826C372.241 341.354 368.022 339.838 367.92 339.885ZM339.071 336.144C338.372 336.686 334.358 335.289 333.526 334.781C333.383 334.688 334.516 333.094 332.673 332.765C331.195 332.503 332.897 334.869 330.148 333.856C327.378 332.834 331.51 332.52 331.286 332.364C330.978 332.158 326.383 331.841 326.796 330.823C327.094 330.07 331.654 331.808 332.874 331.94C334.429 332.11 332.939 330.346 335.379 331.264C336.916 331.84 335.461 333.904 335.765 334.104C336.076 334.284 341.75 334.311 339.065 336.135C339.067 336.138 339.069 336.141 339.071 336.144ZM363.583 338.44C363.831 338.417 364.11 338.44 364.433 338.535C364.148 338.5 363.864 338.471 363.583 338.44ZM574.222 379.896C572.738 378.931 577.613 378.739 579.273 379.957C579.185 380.722 574.456 380.048 574.222 379.896ZM360.316 339.637C355.956 337.984 359.441 337.988 363.583 338.44C362.203 338.569 361.786 340.191 360.316 339.637ZM489.208 365.502C489.043 365.294 488.968 365.001 489.033 364.555C489.461 365.134 489.46 365.403 489.208 365.502ZM478.558 362.725C474.63 363.39 482.113 364.726 482.251 363.75C482.294 363.381 478.713 362.699 478.558 362.725ZM392.787 345.98C393.091 346.185 387.056 349.092 395.186 347.709C391.308 346.35 395.607 346.84 395.625 346.471C395.679 345.417 388.797 344.914 387.442 344.144C385.883 345.708 391.788 345.307 392.779 345.978C392.782 345.979 392.784 345.979 392.787 345.98ZM288.839 321.651C290.015 320.85 292.708 321.984 294.596 322.581C293.409 323.384 290.695 322.25 288.839 321.651ZM315.963 200.868C302.547 206.219 299.35 202.519 312.514 200.21C312.765 200.17 316.647 200.174 315.963 200.868ZM196.59 232.425C194.806 230.854 199.152 229.499 202.192 229.59C202.882 229.61 205.731 230.945 203.093 231.977C202.631 229.668 198.19 229.811 196.59 232.425ZM357.482 340.237C355.867 341.181 352.076 339.315 350.033 338.615C351.56 337.891 355.696 339.392 357.482 340.237ZM269.734 212.355C268.233 212.624 267.691 214.529 267.984 214.593C269.3 214.896 271.659 212.812 269.734 212.355ZM370.589 343.546C370.597 344.345 364.985 343.794 365.056 341.842C366.175 342.25 370.561 343.042 370.589 343.546ZM292.235 323.222C292.94 323.832 288.539 323.315 287.393 322.577C287.717 321.815 291.766 322.825 292.235 323.222ZM246.353 219.33C244.998 219.538 241.657 220.37 241.456 221.128C241.217 222.074 246.031 220.508 246.353 219.33ZM488.815 101.241C489.225 101.267 486.435 107.557 483.984 109.221C479.42 112.387 488.627 101.275 488.815 101.241ZM283.283 207.563C287.923 207.878 282.838 207.747 283.492 209.318C286.361 208.548 293.273 206.575 288.053 206.392C287.037 206.358 284.634 207.283 283.283 207.563ZM279.229 208.153C278.922 208.812 276.521 211.301 278.989 210.462C280.128 210.071 281.61 207.642 279.229 208.153ZM460.122 128.969C455.621 130.769 472.58 117.871 473.166 117.375C473.505 117.254 473.754 117.203 473.92 117.202C474.206 116.309 477.105 113.47 478.263 114.01C477.329 114.778 474.948 117.144 474.561 117.311C474.398 117.383 474.269 117.429 474.168 117.448C473.79 119.392 461.033 128.772 460.122 128.969ZM430.928 147.162C434.136 142.63 436.815 145.34 436.529 145.672C432.645 149.899 434.251 145.636 434.039 145.618C433.611 145.637 430.894 148.792 430.942 147.153C430.937 147.156 430.932 147.159 430.928 147.162ZM454.009 132.856C454.146 132.705 457.73 130.142 457.934 130.048C461.613 128.849 451.387 136.161 454.009 132.856ZM317.061 333.185C314.782 332.194 317.462 331.476 318.92 332.374C319.039 332.456 319.078 334.059 317.061 333.185ZM277.34 209.085C276.775 208.997 261.419 212.289 262.825 214.049C264.181 213.447 281.437 209.66 277.34 209.085ZM165.101 236.933C167.515 236.378 165.332 238.915 163.906 238.507C163.373 238.355 164.492 237.074 165.101 236.933ZM377.334 346.941C380.164 346.48 378.819 349.895 376.852 348.168C376.775 348.1 377.224 346.959 377.334 346.941ZM186.277 233.205C177.407 236.49 178.261 229.901 190.443 229.206C190.143 229.562 189.842 229.919 189.54 230.275C203.325 227.973 190.535 230.5 187.335 231.604C186.103 232.029 187.399 232.795 186.288 233.21C186.284 233.208 186.281 233.207 186.277 233.205ZM153.052 239.876C144.698 237.576 159.13 236.583 163.569 234.995C159.777 237.791 154.539 238.854 162.166 238.863C151.814 241.856 155.796 239.057 155.303 239.018C154.778 238.985 153.406 239.976 153.052 239.876ZM174.035 234.721C174.528 234.476 178.617 234.463 179.968 233.999C178.382 235.921 170.787 236.365 174.035 234.721ZM401.456 164.248C401.265 163.02 401.713 161.843 404.973 160.715C404.297 161.719 402.549 163.154 401.456 164.248ZM585.125 386.827C587.12 387.215 591.076 388.259 590.027 386.841C589.906 386.716 585.233 386.136 585.125 386.827ZM233.403 220.026C232.971 219.996 221.44 222.822 225.738 223.081C227.077 223.158 237.366 220.341 233.403 220.026ZM292.924 203.654C291.98 203.928 288.154 205.302 288.145 205.596C288.163 206.604 292.789 204.667 292.924 203.654ZM595.138 389.552C595.382 389.714 601.636 390.414 601.037 389.744C599.891 388.478 594.282 388.997 595.138 389.552ZM307.76 333.571C307.257 333.48 306.946 332.061 306.781 332.001C306.503 331.914 296.992 329.81 301.013 329.202C301.896 329.173 314.497 333.245 316.244 333.862C316.446 335.747 311.28 332.631 309.896 332.443C309.65 332.412 309.112 333.8 307.766 333.565C307.764 333.567 307.762 333.569 307.76 333.571ZM416.988 154.876C416.777 153.783 428.224 146.417 428.669 147.664C424.934 150.084 420.744 152.65 416.988 154.876ZM410.952 157.87C408.047 158.483 413.871 155.163 415.706 154.553C416.1 155.21 411.393 157.782 410.952 157.87ZM270.027 205.958C268.959 206.547 272.919 207.13 272.221 207.659C271.775 207.993 269.048 208.125 268.362 208.85C268.174 209.072 271.217 209.817 271.95 209.539C272.996 209.15 271.628 208.277 272.791 207.938C276.612 206.824 280.312 206.656 284.064 205.534C284.398 205.432 281.554 205.373 284.42 204.545C284.86 204.416 287.879 204.86 291.173 203.675C297.181 197.742 304.341 199.609 313.081 195.304C312.639 195.062 305.352 196.332 304.903 196.427C296.59 198.376 282.622 202.474 274.287 204.832C272.2 205.425 273.442 205.94 272.549 206.226C271.84 206.451 272.271 204.719 270.027 205.958ZM583.929 387.512C584.654 389.187 588.167 388.726 590.315 389.128C589.76 387.634 585.973 388.169 583.929 387.512ZM358.266 180.009C357.197 180.488 353.585 181.364 353.457 181.909C353.311 182.618 358.426 181.079 358.266 180.009ZM256.439 318.19C256.325 318.199 253.894 317.348 253.818 317.272C252 315.398 259.287 317.956 256.439 318.19ZM198.571 297.801C196.747 297.299 194.897 297.091 194.676 295.654C195.82 296.315 199.065 297.056 198.571 297.801ZM127.005 263.432C126.415 265.022 122.654 261.289 122.055 260.674C122.698 260.251 127.398 262.297 127.005 263.432ZM398.748 159.826C402.625 158.045 400.7 156.209 403.579 156.033C404.042 156.01 407.657 160.012 402.622 160.344C401.71 160.4 404.128 157.851 398.748 159.826ZM192.347 228.809C192.972 227.544 196.131 227.126 198.189 226.722C197.949 227.611 193.639 228.425 192.347 228.809ZM606.218 392.433C607.719 394.205 615.92 394.229 614.075 392.94C613.806 392.769 607.326 392.654 606.218 392.433ZM347.269 342.859C343.832 343.26 350.264 345.226 352.633 344.582C351.668 344.429 347.496 342.834 347.269 342.859ZM141.969 273.248C141.802 273.217 139.339 271.73 139.176 271.567C137.625 269.273 144.891 273.633 141.969 273.248ZM216.756 306.702C215.199 307.212 207.797 303.653 206.508 302.095C208.565 301.333 218.607 306.059 216.756 306.702ZM383.452 167.669C386.053 166.466 388.908 165.514 391.538 164.774C391.423 165.767 383.86 168.188 383.452 167.669ZM132.132 267.773C131.999 267.685 131.915 267.525 131.791 267.438C131.908 267.55 132.02 267.664 132.132 267.773ZM323.144 190.056C320.807 190.488 321.75 191.79 321.905 191.788C323.755 191.697 325.78 189.565 323.144 190.056ZM586.058 390.138C586.601 391.621 590.409 391.106 592.469 391.745C592.016 390.573 587.765 390.249 586.058 390.138ZM144.206 239.448C141.263 238.739 150.972 234.084 153.059 234.575C153.535 235.377 144.599 239.507 144.206 239.448ZM356.651 347.274C356.609 348.382 361.555 348.215 360.688 347.48C360.135 347.015 356.677 346.588 356.651 347.274ZM158.154 233.902C159.009 233.342 161.5 233.829 160.871 234.657C160.066 235.717 157.935 234.055 158.154 233.902ZM253.332 209.574C252.841 209.538 246.843 212.301 249.728 212.673C251.733 212.932 251.607 211.34 252.028 211.222C252.521 211.099 262.944 210.249 253.332 209.574ZM102.217 257.105C102.575 256.253 104.058 255.739 104.99 255.072C104.934 255.895 102.956 257.612 102.217 257.105ZM339.052 343.263C339.44 343.826 354.282 347.742 346.135 344.352C345.644 344.157 337.729 341.565 339.052 343.263ZM398.748 159.826C398.257 160.05 397.672 160.275 396.969 160.492C397.639 160.218 398.235 160.013 398.748 159.826ZM355.815 178.071C356.386 177.008 352.019 178.45 350.865 179.327C350.818 180.381 355.752 178.219 355.815 178.071ZM104.447 254.108C104.785 253.327 106.28 252.933 107.217 252.312C107.37 253.059 105.067 254.567 104.447 254.108ZM117.247 261.439C115.754 259.836 113.649 258.469 113.014 259.11C113.063 258.97 113.069 258.786 113.022 258.559C112.959 258.329 110.896 257.224 110.395 256.399C106.597 251.434 129.639 269.321 114.372 261.384C115.319 261.402 116.277 261.421 117.247 261.439ZM226.16 312.252C227.254 313.79 231.845 313.905 230.907 313.131C230.239 312.597 225.056 310.708 226.16 312.252ZM170.835 291.519C171.266 291.925 175.23 292.811 175.555 292.32C173.771 290.899 169.244 289.826 170.835 291.519ZM237.197 317.34C238.099 317.813 239.876 316.542 239.787 316.432C239.012 315.499 235.908 315.877 237.197 317.34ZM388.955 159.2C387.279 159.427 382.784 162.849 382.286 164.333C382.004 164.212 381.371 164.171 380.279 164.264C380.282 164.262 380.285 164.261 380.288 164.26C378.875 164.691 339.354 179.78 366.617 171.38C367.453 171.117 365.968 170.599 369.307 169.428C369.527 169.352 369.96 170.097 370.638 169.861C372.288 169.298 380.96 166.18 382.268 164.83C382.345 164.968 382.512 165.059 382.793 165.086C385.355 165.317 390.336 158.999 388.955 159.2ZM163.173 288.245C163.786 288.877 166.327 289.701 166.892 289.128C165.823 288.247 161.741 286.775 163.173 288.245ZM338.759 346.375C340.301 347.4 344.914 347.347 343.752 346.426C343.031 345.861 336.975 345.197 338.759 346.375ZM187.683 298.348C178.817 293.768 185.451 297.517 183.622 297.964C184.966 298.092 186.32 298.22 187.683 298.348ZM438.492 135.241C436.683 136.13 437.45 133.023 439.898 132.794C440.673 132.723 439.505 134.738 438.492 135.241ZM502.848 71.8903C500.382 72.0046 505.735 66.5392 505.088 69.7006C505.049 69.8343 502.978 71.8398 502.848 71.8903ZM459.565 117.798C459.296 119.724 458.757 120.397 455.504 122.559C459.761 118.681 454.858 121.152 459.565 117.798ZM112.946 259.236C112.967 259.185 112.982 259.147 113.014 259.11C112.997 259.158 112.974 259.198 112.946 259.236ZM246.388 319.983C247.214 321.422 250.563 322.403 249.914 321.018C249.847 320.889 247.117 319.354 246.388 319.983ZM382.286 164.333C382.536 164.441 382.502 164.598 382.268 164.83C382.194 164.699 382.211 164.539 382.286 164.333ZM227.937 314.816C228.313 314.07 223.407 312.034 223.188 312.057C219.866 312.425 225.813 314.148 227.937 314.816ZM373.766 355.97C374.055 355.948 372.797 353.455 371.545 354.028C370.575 354.473 372.678 356.059 373.766 355.97ZM469.198 108.595C470.767 107.139 472.979 104.984 474.101 105.305C472.929 106.258 469.681 109.179 469.198 108.595ZM499.931 73.4948C499.519 76.0792 496.222 80.4319 493.81 83.1331C492.587 82.1846 498.979 75.4644 499.931 73.4948ZM393.911 157.529C393.755 157.539 389.204 159.149 390.238 159.829C391.784 160.827 395.379 157.47 393.911 157.529ZM365.738 352.935C363.634 353.188 367.581 356.412 370.039 355.208C371.292 354.592 366.085 352.893 365.738 352.935ZM256.379 324.678C258.979 324.848 253.314 321.941 252.169 322.733C253.24 323.165 255.452 324.617 256.379 324.678ZM175.904 296.835C181.704 302.739 180.116 295.761 178.67 295.71C178.465 295.703 175.762 296.694 175.904 296.835ZM625.599 401.621C626.827 401.346 622.698 399.15 621.992 400.116C621.552 400.721 624.811 401.796 625.599 401.621ZM98.9227 246.343C98.9309 246.336 98.9421 246.335 98.9549 246.341C98.9044 246.356 98.8854 246.355 98.9227 246.343ZM277.354 335.455C273.281 329.577 272.89 333.068 272.428 332.913C271.474 332.581 269.448 330.71 267.403 330.302C269.833 330.505 272.148 330.665 274.418 330.807C273.077 330.101 257.958 323.784 257.576 324.403C256.811 325.255 261.648 326.408 261.768 326.537C261.93 326.723 261.833 329.713 262.247 329.954C262.968 330.375 275.648 334.229 277.354 335.455ZM191.259 302.592C190.173 301.793 190.258 300.594 189.599 300.626C189.375 300.637 188.939 301.638 188.187 301.641C189.204 301.958 190.228 302.275 191.259 302.592ZM288.165 334.359C289.342 336.082 282.562 333.621 282.399 333.414C281.474 332.208 287.187 332.953 288.165 334.359ZM230.163 316.598C230.371 316.755 235.47 318.907 235.672 318.19C234.432 317.191 227.567 314.689 230.163 316.598ZM187.363 301.39C185.615 300.552 182.735 298.182 182.49 299.857C182.492 299.858 182.495 299.859 182.498 299.86C184.101 300.37 185.723 300.88 187.363 301.39ZM358.344 354.753C361.31 358.147 360.373 354.528 357.422 352.956C356.197 353.872 357.858 354.2 358.344 354.753ZM369.415 359.359C370.257 360.045 380.341 361.822 379.133 360.123C378.693 359.519 372.687 359.421 372.452 359.266C372.086 359.036 374.245 357.963 371.142 357.558C371.202 358.104 369.132 359.132 369.415 359.359ZM360.914 357.085C364.024 359.864 365.673 356.479 362.987 355.838C361.94 355.584 360.472 356.685 360.914 357.085ZM346.626 353.328C347.79 353.971 351.013 355.278 353.622 354.649C350.541 353.801 347.485 352.95 344.456 352.098C343.939 352.683 345.606 352.764 346.634 353.33C346.632 353.329 346.629 353.329 346.626 353.328ZM505.61 49.3425C503.117 51.0704 506.573 45.4804 506.938 45.4169C508.102 45.2435 506.724 48.5654 505.61 49.3425ZM643.361 437.704C644.104 438.222 644.446 439.645 646.302 439.17C644.662 437.935 643.028 436.7 641.399 435.464C639.72 437.569 642.548 437.133 643.361 437.704ZM649.024 446.967C648.766 446.99 649.673 450.692 646.736 447.912C644.748 446.036 656.896 446.064 658.881 447.904C656.383 448.319 651.246 446.802 649.024 446.967ZM668.179 464.946C668.283 465.245 663.608 465.068 663.102 464.801C660.433 463.399 667.606 463.345 668.179 464.946ZM653.584 462.384C655.641 463.348 650.827 463.168 649.469 462.589C649.417 461.916 653.264 462.242 653.584 462.384ZM446.809 42.8799C443.595 43.0757 446.456 47.8186 447.703 44.5535C447.763 44.3971 446.959 42.8794 446.809 42.8799ZM663.207 467.923C661.13 466.962 665.981 467.135 667.367 467.71C667.416 468.382 663.523 468.065 663.207 467.923ZM441.361 40.511C438.277 41.6039 443.434 44.4747 443.836 44.3511C445.49 43.7921 446.739 38.425 446.902 37.2422C443.041 43.7562 442.813 39.9649 441.361 40.511ZM435.871 52.4736C434.624 54.792 439.908 50.688 439.451 48.6665C438.698 49.6843 436.233 51.8152 435.871 52.4736ZM423.849 61.9704C422.709 62.7547 419.418 64.9812 419.492 66.1089C420.499 65.0495 424.069 63.0652 423.849 61.9704ZM419.754 61.9638C417.414 62.3625 419.412 65.4336 420.485 63.057C420.527 62.9648 419.856 61.9663 419.754 61.9638ZM409.958 68.3358C407.967 68.0427 408.871 71.7587 410.695 70.5001C411.25 70.1045 410.175 68.3777 409.958 68.3358ZM434.344 39.2403C432.643 40.3413 432.952 43.9019 435.839 40.8478C435.207 42.2283 434.539 43.625 433.895 44.9675C438.523 41.689 435.545 39.726 436.643 38.6091C438.191 36.9943 440.353 38.894 440.78 39.8177C440.558 37.2932 445.34 30.9161 447.904 26.7108C444.806 29.7844 439.82 34.3545 437.05 37.0793C436.251 37.8731 436.205 39.1928 435.546 39.8629C434.488 40.9296 434.447 39.1807 434.349 39.2344C434.347 39.2364 434.346 39.2383 434.344 39.2403ZM397.196 77.2533C392.917 78.0509 396.922 79.6949 398.585 77.8605C398.643 77.7646 397.306 77.2303 397.196 77.2533ZM668.078 479.359C661.985 477.096 666.763 475.744 653.332 477.002C659.078 475.627 653.829 475.542 655.007 474.84C655.949 474.285 659.095 475.252 657.398 473.67C659.654 475.449 670.445 476.411 670.905 476.706C670.901 476.706 670.896 476.705 670.892 476.705C671.163 476.881 670.029 480.079 668.078 479.359ZM417.585 55.1859C413.778 52.8604 417.913 58.3048 413.72 57.2528C414.646 63.3532 420.501 51.1959 424.569 53.0865C414.264 62.4442 434.123 49.6779 422.648 51.8896C429.849 47.9272 423.864 49.4947 424.111 48.057C424.389 46.5136 428.042 43.9234 426.713 43.0002C426.711 43.002 426.709 43.0038 426.708 43.0057C425.005 45.084 423.216 47.1531 421.447 49.0971C425.757 49.6311 421.098 52.8918 417.818 52.0958C417.757 53.1184 417.68 54.1484 417.585 55.1859ZM430.731 46.415C430.487 46.6127 426.767 51.3282 427.499 51.5287C428.432 51.2758 433.815 44.4773 430.731 46.415ZM447.46 23.7043C446.022 25.7191 443.304 28.3286 443.586 30.1308C444.997 28.2319 447.739 25.5577 447.46 23.7043ZM357.89 95.1455C355.568 97.3892 364.189 93.7518 361.203 93.7436C361.069 93.7447 358.016 95.0369 357.89 95.1455ZM413.408 59.7382C410.429 60.5286 414.12 62.8846 415.009 60.7025C415.058 60.5768 413.544 59.7019 413.408 59.7382ZM662.923 479.215C662.561 480.2 653.581 478.32 651.989 478.119C653.011 477.298 663.321 478.088 662.923 479.215ZM446.874 17.9188C440.981 19.9287 440.703 27.5387 440.206 28.0401C439.723 28.5376 439.069 26.7182 438.941 26.8192C438.653 27.0941 434.457 32.8813 434.342 33.1707C434.26 33.418 436.826 33.7942 436.489 35.382C437.2 32.5319 445.835 21.9897 446.104 21.1128C446.275 20.5238 441.84 22.6959 446.869 17.9259C446.871 17.9236 446.873 17.9211 446.874 17.9188ZM438.787 29.1322C440.634 28.2368 437.673 32.4084 436.672 33.1159C434.429 34.7595 438.554 29.2917 438.787 29.1322ZM430.836 37.9046C430.32 38.2226 427.061 41.7415 427.564 42.7358C430.111 41.9448 432.01 37.2642 430.836 37.9046ZM390.679 72.8596C389.673 73.6607 386.107 74.8767 386.386 75.7743C387.499 74.9639 391.01 73.7449 390.679 72.8596ZM631.162 483.136C633.546 484.235 627.741 483.767 626.12 483.172C626.11 482.552 630.957 483.042 631.162 483.136ZM407.38 53.3185C406.805 53.6508 395.619 63.0531 393.965 64.4952C396.18 64.0327 407.878 55.1982 408.012 54.4313C408.093 54.23 407.477 53.294 407.38 53.3185ZM428.583 30.5953C428.386 28.6583 430.23 28.9252 430.358 28.7937C431.586 27.5548 433.609 24.3288 434.159 25.7726C431.803 28.1063 428.958 34.4569 428.583 30.5953ZM386.5 68.2438C382.297 71.4356 391.6 67.3362 389.677 66.8448C389.57 66.8165 386.942 67.9133 386.5 68.2438ZM408.339 51.9825C408.532 50.5975 419.304 41.5541 420.751 39.6836C420.874 42.5438 418.554 42.7821 416.747 44.7525C416.249 45.2953 416.98 45.7505 416.925 45.8076C416.038 46.7437 416.041 45.3753 415.466 45.9216C415.163 46.3441 408.26 54.1714 408.339 51.9825ZM428.341 29.3857C428.242 28.3341 433.905 20.1913 434.35 19.8687C437.397 18.3357 428.967 29.164 428.341 29.3857ZM406.185 51.4619C405.834 48.7374 411.993 45.2687 409.231 49.3394C408.956 49.7299 406.877 50.2051 406.185 51.4619ZM385.789 66.0549C385.579 66.1248 380.602 68.5891 380.939 69.239C381.729 69.1515 388.681 65.1546 385.789 66.0549ZM386.736 62.4677C386.636 62.5513 388.449 63.1028 386.289 64.2627C386.095 64.3604 384.961 63.1868 382.558 65.3525C382.069 65.7939 381.74 67.2393 381.837 67.2587C386.192 67.6729 391.643 58.2739 386.736 62.4677ZM427.416 28.4401C426.566 28.4186 425.723 26.2114 427.215 25.9553C427.858 25.8437 428.277 27.3018 427.416 28.4401ZM370.358 74.1607C372.691 71.5495 363.428 76.1399 363.125 76.5953C363.743 77.1632 370.14 74.4348 370.358 74.1607ZM624.068 491.745C624.071 491.745 624.074 491.746 624.077 491.746C620.994 491.043 623.066 490.295 622.924 490.243C616.494 487.843 617.944 490.378 616.869 490.506C614.498 490.773 615.243 488.035 611.209 488.649C617.857 487.837 611.921 487.738 611.88 486.72C611.749 482.576 620.099 489.799 623.25 489.363C623.696 489.305 620.692 487.575 621.847 487.359C625.586 486.661 635.936 494.433 624.068 491.745ZM427.598 25.1613C427.361 23.5627 434.13 16.2575 433.389 18.949C433.236 19.4925 427.861 27.7463 427.598 25.1613ZM56.5902 329.757C53.057 328.309 59.1001 334.589 60.5007 334.566C61.3132 334.676 58.2089 330.471 56.5902 329.757ZM98.0144 361.384C101.256 362.87 106.603 360.745 102.362 359.3C101.914 359.151 97.9401 360.665 98.0144 361.384ZM132.048 143.059C128.15 142.479 129.107 145.207 131.65 144.494C132.552 144.244 132.171 143.078 132.048 143.059ZM15.988 284.33C16.1082 285.064 20.1522 292.362 20.507 291.502C19.3953 289.074 14.6804 279.804 15.988 284.33ZM133.063 142.373C131.11 143.414 135.196 144.5 137.3 141.885C136.019 142.373 133.264 142.265 133.063 142.373ZM398.129 49.8302C397.879 51.5424 394.85 53.3978 393.27 54.7717C392.235 53.6537 397.167 50.9783 398.129 49.8302ZM85.2897 352.294C88.8884 353.151 82.8085 348.56 82.6896 350.133C82.7262 350.249 85.1401 352.264 85.2897 352.294ZM235.268 116.88C233.434 118.335 240.351 117.695 238.109 116.65C238.005 116.612 235.371 116.8 235.268 116.88ZM263.486 109.319C261.922 109.473 255.402 111.496 258.202 111.599C258.65 111.612 263.627 110.153 263.486 109.319ZM616.534 491.572C617.232 493.257 611.984 492.149 611.269 491.771C610.988 491.616 615.624 489.381 616.534 491.572ZM108.552 149.617C106.707 150.411 102.091 151.579 101.268 152.75C103.668 151.714 109.607 150.996 108.552 149.617ZM71.5456 343.794C73.5875 347.191 77.7905 349.596 77.9489 347.065C73.0032 344.119 77.7427 349.363 71.5456 343.794ZM144.683 137.637C143.114 137.868 142.445 140.232 142.641 140.289C144.5 140.834 146.4 138.096 144.683 137.637ZM24.5645 200.612C23.6567 200.096 18.6625 208.213 19.8807 207.552C20.2521 207.159 25.181 200.898 24.5645 200.612ZM357.696 73.7344C355.738 73.7597 360.246 70.6514 362.017 70.8347C363.349 71.7474 357.977 73.7184 357.696 73.7344ZM181.719 129.514C181.607 128.144 175.187 130.482 178.053 130.951C178.776 131.068 181.762 129.972 181.719 129.514ZM243.205 111.781C239.415 114.556 257.506 110.569 252.274 109.966C251.753 109.974 243.598 111.534 243.205 111.781ZM272.573 104.148C271.782 104.205 270.812 99.7263 274.331 100.471C274.794 100.566 273.312 102.295 273.716 102.458C273.976 102.548 280.614 101.123 280.849 100.93C281.126 100.714 280.31 99.4376 280.577 99.1794C280.832 98.9067 285.267 98.8288 287.379 98.1461C291.329 96.8699 291.325 95.5773 291.647 95.4672C292.564 95.1514 294.381 95.4538 296.204 94.8307C305.884 91.5552 319.369 85.4742 327.531 84.9713C320.633 86.5927 315.004 89.8843 308.55 92.5678C309.63 89.4907 299.58 97.829 305.375 92.6659C302.436 94.5272 275.252 104.015 272.581 104.145C272.578 104.146 272.575 104.147 272.573 104.148ZM110.176 369.046C107.639 369.556 117.569 373.986 119.184 372.719C117.921 371.866 110.731 369.138 110.176 369.046ZM60.9319 344.835C59.8295 344.374 57.0631 346.23 53.0376 341.286C53.0331 341.283 53.0287 341.28 53.0242 341.276C51.8547 339.824 53.9474 340.477 53.8411 340.064C53.9153 340.002 49.7842 334.897 54.0781 337.898C60.0148 341.888 53.2635 340.141 56.2938 342.427C56.6497 342.724 63.4966 345.541 63.368 344.987C63.3546 344.929 61.3719 343.976 61.1683 343.645C60.3929 342.405 61.4817 342.007 61.3525 341.86C61.134 341.634 58.4885 340.221 55.9069 338.548C53.2886 336.863 50.2319 334.495 50.0229 333.409C50.1426 333.154 65.7545 343.405 66.2883 343.846C66.5849 344.228 64.9401 346.307 65.1943 346.792C65.2601 347.025 72.417 350.527 72.8206 351.038C73.0027 351.236 73.1307 351.407 73.2209 351.537C72.7618 350.294 78.0604 353.654 77.4353 354.338C77.1438 354.593 73.5554 352.13 73.4678 351.992C73.4247 351.933 73.3946 351.87 73.3617 351.819C73.9092 353.451 60.3746 344.439 62.471 347.587C58.175 345.605 64.2417 346.176 60.9319 344.835ZM41.3397 331.613C41.9203 331.752 42.5007 331.888 43.081 332.021C36.2571 327.02 28.512 317.959 20.4623 307.095C18.377 304.218 19.3818 308.566 17.0468 304.432C15.1793 301.086 14.3686 296.605 15.7421 298.203C16.0377 298.616 19.3777 305.616 21.8019 308.495C25.4305 312.934 26.7094 313.592 27.4874 313.902C28.2219 314.128 28.2061 313.537 28.4005 313.731C28.8057 314.172 31.9843 319.242 34.3074 321.471C40.412 327.321 42.7491 328.259 49.6483 335.401C44.6984 332.607 45.7016 336.183 41.3397 331.613ZM208.141 118.655C208.16 117.703 212.092 117.526 213.549 117.004C213.487 117.972 209.515 118.163 208.141 118.655ZM427.645 467.306C429.233 466.088 419.55 463.784 421.876 465.524C422.387 465.91 426.412 467.053 427.645 467.306ZM384.778 457.543C383.366 457.666 388.472 459.87 388.626 458.71C388.751 458.355 384.952 457.526 384.778 457.543ZM41.2318 174.492C41.3717 174.354 42.844 173.332 44.1175 172.525C45.3222 171.763 46.5258 171.057 46.6172 171.04C48.4794 170.738 45.9173 172.655 43.0689 174.577C40.2252 176.504 37.7239 177.874 41.2318 174.492ZM331.936 447.437C336.631 447.554 323.307 443.896 327.11 446.11C327.295 446.22 331.706 447.432 331.936 447.437ZM313.403 443.175C314.453 443.385 318.994 445.018 319.17 444.587C319.435 443.89 314.232 442.075 313.403 443.175ZM144.446 131.852C144.102 131.311 144.819 130.913 146.005 130.592C147.84 130.084 150.951 129.868 152.27 129.423C152.99 130.681 148.891 131.002 146.201 131.457C145.501 131.581 144.89 131.71 144.446 131.852ZM100.372 142.912C129.459 132.357 123.771 137.712 98.8655 144.305C98.4268 143.306 98.6503 143.591 100.372 142.912ZM137.785 132.349C136.972 133.663 133.598 134.165 131.386 134.646C131.584 133.81 136.198 132.929 137.785 132.349ZM438.464 471.792C436.555 472.825 429.67 469.756 431.063 469.451C431.376 469.39 439.201 471.167 438.464 471.792ZM43.4739 171.032C41.676 170.165 52.3606 163.822 53.4013 163.763C57.3597 162.992 44.0013 169.978 43.4739 171.032ZM180.153 121.994C181.176 120.416 185.063 120.152 187.428 119.585C186.622 120.923 182.218 121.518 180.153 121.994ZM162.405 125.184C162.548 125.1 165.904 124.431 166.062 124.454C169.081 125.041 159.58 126.943 162.405 125.184ZM626.736 504.636C626.612 504.662 623.939 504.215 623.852 504.154C621.625 502.598 629.646 503.945 626.736 504.636Z" fill="url(#paint0_linear_2420_29284)"></path>
<defs>
<linearGradient id="paint0_linear_2420_29284" x1="-39.6036" y1="238.36" x2="452.887" y2="236.158" gradientUnits="userSpaceOnUse">
<stop stop-color="#00FBFF" stop-opacity="0"></stop>
<stop offset="0.192138" stop-color="#00FBFF"></stop>
<stop offset="0.634369" stop-color="#089AEF"></stop>
<stop offset="1" stop-color="#08B1EF" stop-opacity="0"></stop>
</linearGradient>
</defs>
</svg>