<svg width="1613" viewBox="0 0 1613 778" fill="none" xmlns="http://www.w3.org/2000/svg" preserveAspectRatio="none">
<path opacity="0.2" d="M1476.97 166.059C1476.84 167.429 1475.32 172.683 1474.88 174.982C1473.87 172.057 1477.44 161.142 1476.97 166.059ZM1494.96 450.286C1495.78 448.131 1496.6 445.969 1497.4 443.801C1493.92 449.232 1489.64 456.821 1486.03 461.815C1485.45 462.623 1485.83 459.813 1484.53 461.777C1483.23 463.737 1484.83 464.216 1483.12 467.191C1481.22 470.601 1470.66 484.391 1467.1 489.379C1454.03 508.15 1440.52 526.79 1424.9 543.489C1439.39 524.939 1423.07 542.122 1419 547.29C1418.06 548.392 1420.63 550.543 1403.59 567.112C1392.61 577.423 1399.68 564.714 1382.97 583.649C1399.05 572.409 1385.23 585.635 1373.96 595.764C1372.12 597.536 1355.69 611.086 1348.44 616.896C1345.98 618.924 1343.14 623.136 1339.77 625.763C1337.46 627.565 1335.18 628.226 1331.72 630.847C1315.61 643.026 1299.1 654.134 1281.71 664.274C1289.68 654.771 1272.95 667.571 1271.99 667.818C1267.34 669.319 1285.77 658.033 1278.07 661.82C1267.9 668.052 1257.57 673.987 1247.11 679.632C1255.99 675.518 1237.2 688.645 1232.81 689.237C1236.13 692.081 1182.36 709.1 1174.86 712.629C1173.29 713.446 1184.76 711.137 1159.4 719.717C1156.64 720.619 1157.31 719.241 1155.92 719.847C1155.09 720.208 1151.02 725.268 1144.88 725.371C1142.62 725.346 1154.89 719.122 1126.72 729.186C1139.18 729.127 1087.52 742.929 1077.78 743.969C1079.78 743.949 1081.78 743.924 1083.78 743.89C1074.14 745.049 1072.72 746.558 1070.59 747.011C1062.03 748.813 1049.96 750.279 1042.09 752.002C1032.82 754.017 1033.2 756.146 1022.14 757.368C1024.82 757.356 1027.49 757.333 1030.17 757.3C1022.63 758.639 1015.01 759.899 1007.5 761.053C1024.4 755.244 1003.74 761.585 1002.34 761.837C1000.13 762.303 1003.14 760.634 999.444 761.38C999.062 761.463 999.798 762.468 994.067 763.491C982.08 765.583 983.775 763.9 978.724 764.644C978.262 764.71 980.017 765.487 971.357 766.896C943.778 771.174 971.411 766.167 972.435 765.849C973.813 765.448 963.754 762.785 987.433 760.843C979.477 761.552 978.426 759.831 977.534 759.916C976.754 760.009 963.205 762.074 962.457 762.211C955.84 763.662 961.884 764.167 960.607 764.551C959.565 764.891 942.915 765.195 939.471 769.299C931.262 766.654 943.658 765.771 956.797 763.638C958.634 762.717 944.082 763.718 943.317 763.779C924.718 765.743 935.301 767.483 931.406 769.716C929.353 770.88 921.547 769.661 928.825 771.538C911.854 773.382 922.029 770.947 920.912 770.836C919.229 770.668 913.344 771.906 912.589 771.867C911.485 771.813 915.21 770.619 910.877 770.662C910.16 770.676 903.326 772.751 912.351 772.753C900.352 773.502 901.47 774.681 897.233 772.369C889.357 777.873 891.081 769.855 887.842 769.788C879.219 769.589 881.932 773.304 881.491 773.523C878.4 774.972 854.573 774.772 848.711 775.475C850.939 772.623 867.532 774.706 871.209 773.948C883.439 771.534 853.809 773.376 862.586 769.437C858.898 770.567 855.199 771.683 851.491 772.784C844.549 770.75 854.254 769.494 835.822 770.845C832.854 772.887 848.865 770.164 845.687 771.79C843.819 772.764 833.096 773.245 832.904 773.717C832.698 774.301 842.381 773.365 840.876 774.284C837.537 776.362 802.308 775.125 829.094 773.629C821.616 773.812 817.717 770.084 811.258 771.324C807.143 772.089 829.798 776.999 797.369 776.463C796.698 776.448 796.004 776.431 795.284 776.411C795.088 775.942 795.964 775.685 797.369 775.556C801.348 775.198 809.551 775.806 809.836 775.7C810.378 775.498 807.65 771.492 807.184 771.295C806.665 771.092 802.744 771.192 797.369 771.325C785.725 771.642 767.141 771.957 761.947 770.437C764.919 772.884 734.679 770.12 731.349 770.609C730.461 770.768 733.69 772.328 732.744 772.44C726.828 773.122 711.039 769.791 703.681 769.246C695.438 768.652 696.392 769.931 695.932 769.902C692.294 769.584 695.261 768.951 693.035 768.799C689.671 768.627 666.591 766.556 665.419 766.569C665.073 766.592 668.722 768.343 663.652 768.14C662.772 768.087 663.482 766.557 648.461 765.708C630.355 764.603 660.755 769.109 653.092 770.035C641.755 766.348 641.874 768.796 638.747 768.252C637.662 768.055 629.823 765.042 621.002 764.001C627.366 764.502 633.72 764.944 640.052 765.329C633.917 764.272 621.801 763.196 616.75 762.068C614.287 761.523 616.573 760.11 611.167 759.392C610.022 759.234 604.862 762.785 619.311 762.874C620.246 764.512 613.621 762.632 610.432 762.596C609.952 762.593 607.719 764.806 603.944 762.671C603.03 762.1 614.601 756.66 586.843 757.531C585.946 757.554 588.815 758.96 587.935 759.005C587.332 759.041 580.509 757.502 579.728 757.49C578.925 757.491 582.079 759.053 581.12 759.085C576.184 759.253 570.67 754.241 580.384 756.274C577.202 755.221 574.028 754.152 570.862 753.067C573.803 756.644 565.6 752.952 561.055 752.139C532.009 746.787 550.973 752.649 545.79 752.607C537.433 752.435 544.634 748.829 532.457 747.634C531.318 747.469 545.194 753.104 517.437 745.138C521.587 746.09 525.743 747.009 529.904 747.896C528.175 744.558 514.937 744.477 513.956 744.243C502.882 741.765 510.58 742.8 493.911 739.734C492.419 739.452 489.453 737.867 486.255 737.298C472.972 734.94 503.005 743.077 503.526 744.279C503.768 745.104 471.595 735.63 470.63 734.851C466.326 732.268 485.3 738.823 482.077 736.253C480.849 735.69 435.125 721.628 426.446 717.133C416.316 712.44 413.241 706.844 411.476 710.883C410.242 705.695 406.562 707.32 405.258 706.726C389.641 699.454 389.659 699.365 376.123 693.301C373.135 691.937 371.26 689.53 370.129 689.208C369.468 689.022 369.962 690.846 366.819 689.734C362.395 688.332 338.75 673.718 337.483 671.909C336.087 670.234 347.759 677.4 346.258 675.069C337.693 670.111 329.373 665.544 320.951 660.109C317.461 657.842 319.747 658.228 318.239 657.251C317.555 656.855 305.195 649.692 305.523 650.262C306.033 652.008 344.147 674.735 333.396 669.962C331.293 669.087 325.554 663.202 325.337 665.986C291.762 644.814 260.191 620.187 231.525 592.632C249.522 606.929 268.157 624.514 287.592 638.346C290.252 640.288 299.193 646.833 298.81 645.014C282.255 633.259 261.901 618.207 247.898 604.828C247.447 604.399 249.909 605.04 248.275 603.379C245.211 600.327 233.443 592.089 232.037 590.063C231.798 589.704 238.776 594.129 237.605 591.752C234.612 585.662 229.834 588.563 225.971 584.767C222.917 581.989 205.003 559.937 199.365 555.897C193.024 551.653 212.615 571.684 210.295 571.154C195.998 558.465 184.221 542.643 173.009 528.921C172.808 528.676 173.644 531.523 171.021 528.497C166.467 523.207 166.614 520.751 164.741 517.898C162.688 514.835 154.758 504.491 154.303 502.811C154.238 502.592 157.034 503.753 157.3 504.04C161.057 508.084 160.709 511.024 160.977 511.433C162.078 513.036 163.855 514.081 164.886 515.512C166.584 517.867 166.979 519.581 169.281 522.631C170.869 524.731 170.401 521.871 171.917 523.899C172.449 524.654 176.242 534.46 179.366 533.092C179.469 533.523 132.426 466.078 128.904 459.33C132.214 465.488 135.484 471.389 139.037 477.53C132.071 465.251 121.192 452.041 123.89 448.987C97.6291 403.815 76.7765 356.33 60.0476 307.88C57.3644 299.154 61.3007 303.149 55.8301 289.035C56.3074 293.006 56.8041 296.96 57.3203 300.896C55.1309 293.318 46.0235 260.664 44.1459 255.513C43.8871 254.84 41.4376 254.549 38.9255 246.336C36.7133 239.035 38.0141 237.351 37.2715 233.35C36.6759 230.097 35.3104 226.604 35.1531 225.626C35.0352 224.874 35.9541 224.328 35.6743 222.519C34.7878 216.801 33.1311 222.04 34.9522 215.668C35.4142 216.993 35.878 218.314 36.3435 219.632C35.093 212.777 34.3024 203.113 37.4793 212.936C38.0299 214.618 36.6993 213.387 37.0194 214.664C50.2672 264.396 41.4234 224.217 35.7357 207.05C35.9983 202.239 29.3009 176.617 29.5219 175.949C29.6858 174.704 31.7511 178.74 31.5469 172.913C31.4197 171.831 23.9052 137.817 28.2347 149.761C29.1008 152.266 31.9593 168.608 32.8602 172.429C33.9433 162.774 25.3475 141.816 25.03 139.233C23.659 129.136 31.2515 157.945 27.4392 135.352C24.6928 118.377 25.4568 134.576 23.4357 128.267C22.2763 124.777 21.3791 105.207 18.5488 106.162C17.1852 99.55 19.3561 103.204 19.3381 102.365C19.3001 101.565 16.4193 88.5069 16.4351 84.062C16.4371 83.5262 18.2037 84.9588 18.2511 84.3985C18.2812 83.1802 16.2656 70.8548 16.0817 70.3739C15.9486 70.0689 15.0052 73.2043 14.5164 72.0335C13.94 70.6851 12.6983 58.6298 12.2407 57.996C11.5293 57.1485 13.8361 71.9347 12.0193 69.6556C11.4824 62.8069 9.08983 51.6953 7.34475 47.2278C7.82067 48.3184 8.68155 55.0365 8.85269 57.3676C6.50341 56.5742 4.80877 42.0724 7.13962 46.8236C5.83418 43.7799 5.58999 45.9912 4.49966 44.3146C4.2204 43.8754 3.65901 39.3754 3.18133 38.5446C3.09124 38.4414 2.79011 43.1912 2.23717 42.3105C1.22262 40.7382 -0.0999947 26.936 0.00648499 25.7595C0.271351 22.51 2.19008 33.7176 3.23027 34.5341C3.38177 34.6575 4.17974 24.8998 4.33158 24.7309C5.99323 24.001 5.88595 34.7618 7.31289 33.3718C7.35462 30.7182 7.40189 28.0568 7.45482 25.3886C10.0647 35.4225 11.4382 53.9399 13.8356 58.3852C11.4536 43.8672 9.85033 28.1332 13.888 27.7416C15.5846 27.5778 17.277 33.9 17.6834 33.5992C19.1178 32.494 16.4854 23.7364 16.5374 23.3867C16.6032 23.1039 16.682 22.97 16.7712 22.9605C16.7712 22.9605 16.7713 22.9605 16.7713 22.9605C17.6663 22.8861 19.6857 35.5384 20.1797 36.1054C21.0303 37.0863 23.4238 31.1258 24.0947 31.0612C24.2453 31.253 25.9657 40.141 26.7904 36.9838C27.6164 33.8034 26.7914 25.9186 26.8876 25.6224C27.4224 24.0567 29.5662 37.7455 30.0403 38.0829C30.2715 38.2777 30.7404 30.7794 31.092 30.5199C31.443 30.2982 32.8736 35.8038 34.3013 37.8547C35.3603 39.388 35.4894 34.5563 35.7216 35.3768C35.8688 35.9834 37.3534 48.7835 37.5939 49.3711C37.9337 50.274 38.6149 47.1695 38.9285 47.5718C39.3764 48.1434 39.5023 52.2854 39.823 51.7041C40.0432 51.2882 41.7571 34.9008 42.747 34.8784C44.3971 34.8961 42.5941 52.2173 47.2373 35.7495C47.2663 35.6364 46.3747 31.8459 46.4036 31.7323C47.3323 29.226 50.5246 41.3563 48.5436 26.3032C53.7443 54.0511 51.3844 29.5289 54.6106 33.3582C55.8425 34.8476 57.539 45.5121 57.711 45.5294C58.9296 44.3325 57.4813 41.0533 58.0057 39.8129C58.2945 39.143 60.8605 48.5124 61.5265 46.251C61.8603 45.1003 60.4991 34.969 60.5508 34.5249C60.9688 30.3857 62.4737 35.2327 62.9954 34.2736C63.3428 33.6423 62.6884 27.4706 62.7484 27.2966C62.8725 27.028 65.4925 35.2084 66.2905 36.8581C66.8977 38.1214 67.0432 33.0985 67.348 33.9937C69.1612 39.4082 67.5473 51.4188 70.4419 39.6621C70.6197 38.9456 70.0183 34.6811 70.057 34.5469C70.9563 31.7641 71.9677 39.6325 73.124 40.9065C75.1047 43.1105 72.8305 31.9659 75.1293 41.1841C75.408 34.0378 74.9113 30.1213 73.705 21.8106C77.1019 44.744 82.4898 52.0682 79.4639 26.8405C80.2958 34.9331 82.6865 33.7316 83.005 36.1213C83.1928 37.6187 82.1307 49.4389 87.0177 43.4851C87.6244 42.7466 85.9133 35.8405 87.5888 37.8688C89.2529 54.6817 88.5232 38.1299 88.716 38.0801C91.8983 38.0969 94.5008 78.607 96.1592 85.8976C97.8337 93.9992 101.562 100.687 101.854 102.418C102.808 108.118 100.722 103.606 100.459 104.96C100.188 106.393 105.463 121.9 105.54 122.942C105.585 126.259 103.455 123.276 103.439 123.623C103.194 127.867 108.685 149.602 109.645 155.597C110.583 155.217 108.157 143.06 111.308 150.312C114.99 158.709 110.768 160.098 110.622 160.379C119.566 201.481 130.347 240.655 144.24 279.837C146.24 278.699 135.94 253.638 136.107 252.802C136.64 249.148 151.098 291.818 152.63 297.258C151.574 293.049 150.595 288.943 149.669 284.895C154.514 290.372 157.086 307.045 162.109 315.968C163.732 318.882 162.279 312.6 162.4 312.691C164.783 315.752 166.325 321.532 163.302 317.976C168.066 325.825 166.103 325.014 168.871 331.655C169.015 331.989 168.789 328.763 171.475 333.716C172.715 336.076 178.511 348.646 180.183 349.843C180.864 350.347 181.765 342.27 178.084 343.023C173.458 328.598 174.561 339.344 172.22 333.944C171.913 333.146 174.437 334.06 167.826 321.044C172.175 321.995 176.606 338.884 178.249 341.249C181.575 346.403 173.004 322.823 168.828 320.01C172.292 320.8 168.508 318.297 166.54 313.196C164.395 307.603 166.177 309.697 164.967 306.679C161.693 298.369 161.156 302.556 160.191 294.954C157.474 303.77 154.949 283.284 154.553 277.524C157.9 286.075 161.521 294.919 165.246 303.536C165.326 302.928 165.406 302.321 165.486 301.713C166.352 304.026 167.225 306.326 168.105 308.611C167.693 308.354 167.281 308.097 166.869 307.839C173.333 318.831 172.644 322.3 173.015 323.267C178.109 335.779 184.514 349.524 190.481 361.368C191.41 363.152 192.365 361.207 197.87 374.76C199.647 379.053 196.305 375.899 198.989 380.4C205.559 384.234 202.765 385.598 203.702 387.291C206.387 392.066 209.055 394.691 209.306 395.105C212.941 401.069 218.041 409.754 222.181 415.925C222.268 416.033 221.202 412.129 223.501 416.383C224.23 417.792 228.573 433.927 237.799 443.718C236.046 440.705 234.314 437.662 232.601 434.589C234.362 438.344 252.749 460.642 249.612 454.145C247.637 450.249 238.664 443.663 240.632 440.901C244.94 449.757 279.802 489.156 282.406 492.023C282.711 492.505 279.607 490.704 280.037 491.357C280.299 491.838 288.874 500.444 289.727 501.816C290.227 502.664 286.038 499.303 286.075 499.867C286.121 500.376 296.479 511.315 298.016 510.912C294.997 508.774 287.987 501.107 292.604 504.176C293.191 504.575 295.175 507.706 295.903 508.171C302.595 512.534 285.65 496.366 283.201 493.538C294.556 503.259 309.615 520.326 323.41 530.396C327.956 535.644 314.582 525.072 319.926 530.785C331.157 542.592 324.147 532.381 324.639 532.619C328.349 534.369 335.554 547.508 338.302 543.964C342.549 548.053 340.696 547.388 347.682 551.823C346.989 550.934 346.298 550.043 345.611 549.149C354.386 552.61 366.914 568.849 365.487 568.435C361.432 567.392 354.154 559.869 353.431 559.393C352.387 558.708 346.603 560.346 337.787 548.609C331.258 547.573 354.636 563.619 343.004 557.636C350.057 562.848 379.16 584.234 384.529 585.475C385.156 585.63 384.177 581.614 391.096 587.372C394.396 590.102 385.552 585.069 386.883 586.62C390.196 592.751 464.77 626.616 480.242 630.26C481.199 630.596 480.536 631.353 481.482 631.678C484.379 632.695 495.431 634.964 500.543 637.008C490.243 631.901 511.29 638.499 516.689 640.162C524.829 642.805 523.905 644.221 527.383 645.543C540.838 650.682 563.391 651.884 573.623 657.636C573.729 653.999 592.298 663.158 601.385 664.651C608.465 665.884 619.125 665.087 609.794 662.147C621.949 664.264 634.949 665.369 646.523 666.527C648.434 666.717 645.681 667.472 648.948 667.759C649.246 667.777 649.775 666.784 652.584 666.994C675.812 668.587 664.342 669.559 668.615 670.671C671.014 671.275 672.802 671.626 674.114 671.808C660.496 670.781 644.913 669.344 640.75 668.836C643.992 671.667 670.752 671.82 678.468 673.032C678.736 673.078 677.684 674.269 677.957 674.302C677.963 674.303 677.969 674.303 677.974 674.304C680.868 674.702 699.531 675.664 695.808 673.841C694.809 673.359 686.24 672.743 676.123 671.962C678.884 671.923 676.97 670.313 677.458 670.295C683.353 670.138 697.616 672.645 702.737 673.156C703.904 673.276 703.882 672.354 704.073 672.365C708.704 672.875 706.637 675.371 711.574 672.965C719.81 676.751 695.752 672.449 697.313 674.637C698.46 676.643 752.621 678.392 752.553 675.564C752.732 675.845 753.467 676.208 754.986 676.639C758.35 677.616 773.482 677.642 776.1 677.183C776.542 677.095 776.398 674.596 776.944 674.579C777.989 674.554 789.112 675.817 797.369 675.672C799.864 675.632 802.091 675.467 803.691 675.118C801.584 674.929 799.477 674.735 797.369 674.537C795.749 674.385 794.129 674.231 792.51 674.074C794.288 674.078 795.904 674.073 797.369 674.063C814.425 673.896 810.912 673.191 804.028 672.554C803.654 672.549 803.289 672.456 802.932 672.447C801.146 672.284 799.205 672.12 797.369 671.963C793.24 671.61 789.655 671.295 789.577 671.159C789.451 670.932 792.808 670.755 797.369 670.655C807.967 670.451 824.964 670.45 819.892 672.149C818.886 672.507 801.282 671.628 810.009 673.208C811.541 673.496 822.823 672.868 823.414 673.028C827.42 674.205 802.745 676.117 805.761 677.781C811.765 676.11 819.471 676.881 826.329 676.316C829.45 676.061 830.185 674.789 830.569 674.757C836.326 674.29 833.124 675.681 835.05 675.599C836.093 675.561 847.346 672.406 845.332 676.321C882.501 671.903 855.604 673.283 832.645 674.081C839.875 672.518 854.065 672.687 860.382 672.051C862.649 671.827 861.244 670.609 865.063 670.164C873.003 669.394 910.676 668.193 920.454 667.415C914.51 668.441 916.389 669.671 921.01 669.126C925.625 668.572 921.556 667.097 922.438 666.808C923.368 666.559 945.138 665.054 948.681 664.303C932.495 666.93 936.317 667.903 950.165 666.354C948.22 667.004 946.271 667.649 944.316 668.289C952.372 666.795 969.611 666.557 974.212 665.186C974.929 664.975 972.124 664.209 972.528 664.091C976.556 663.017 990.583 661.95 991.151 661.424C991.639 661.007 985.592 661.019 987.697 660.177C988.142 660 994.048 660.627 999.59 659.232C1001.64 658.717 1000.19 657.849 1000.7 657.692C1004.95 656.368 1002.74 658.699 1010.61 656.893C1016.37 655.549 1020.3 652.907 1028.35 651.802C1001.8 654.905 1023.92 651.463 1034.66 648.304C1036.37 647.792 1034.46 646.211 1045.02 644.734C1023.77 653.4 1051.8 645.21 1057.49 643.683C1057.81 643.613 1058.25 644.878 1061.09 644.164C1061.33 644.1 1060.76 643.324 1063.37 642.568C1087.99 635.2 1072.41 640.48 1077.36 640.042C1079.48 639.861 1091.05 635.123 1094.25 634.065C1094.98 633.832 1094.92 634.833 1097.76 633.901C1102.79 632.245 1106.96 629.82 1110.21 628.637C1110.59 628.499 1111.1 629.911 1117.15 627.305C1118.85 626.571 1120.64 625.382 1118.02 625.858C1109.42 627.45 1094.38 634.858 1084.47 636.286C1075.5 637.668 1102.63 629.355 1103.96 628.762C1104.48 628.59 1099.45 631 1104.83 629.394C1109.45 628.013 1116.86 622.803 1123.74 620.883C1124.26 620.743 1130.35 620.796 1130.15 620.999C1129.96 621.18 1121.89 624.626 1123.29 624.773C1123.46 624.793 1128.7 622.868 1129.54 623.044C1130.57 623.267 1134.78 627.617 1135.95 627.319C1138.96 626.544 1136.63 626.076 1138.52 625.446C1142.58 624.141 1156.91 620.07 1156.6 618.073C1154.31 618.914 1152 619.741 1149.7 620.556C1162.19 615.193 1156.5 616.624 1158.13 615.559C1159.88 614.389 1160.01 616.182 1164.27 614.507C1165.23 614.206 1182.44 605.946 1181.79 605.393C1172.72 610.911 1175.38 607.326 1174.92 607.507C1173.2 608.154 1171.54 610.198 1169.27 611.19C1153.24 618.047 1168.59 609.284 1164.63 610.503C1163.28 610.926 1161.09 612.965 1160.52 613.154C1158.66 613.773 1158.12 612.578 1156.96 613.184C1154.26 614.593 1158.25 614.921 1158.07 615.102C1156.02 617.256 1145.59 619.963 1150.97 615.579C1147.02 616.415 1147.5 618.859 1144.21 619.118C1137.69 619.614 1146.57 616.642 1148.8 615.366C1156.76 610.813 1159.63 610.673 1171.19 605.1C1175.34 603.088 1179.77 599.663 1181.66 598.677C1182.85 598.099 1196.11 596.115 1193.46 590.147C1198.1 588.485 1206.94 588.624 1211.3 585.972C1215.2 583.598 1212.81 582.299 1213.13 582.015C1213.64 581.581 1218.5 579.022 1219.94 577.802C1221.62 576.375 1220.25 576.17 1223.03 574.114C1229.91 568.974 1230.9 571.049 1231.74 570.725C1241.35 566.814 1235.77 566.347 1237.54 564.92C1239.29 563.75 1264.36 548.249 1268.7 543.667C1266.96 545.55 1265.2 547.422 1263.43 549.281C1267.96 547.816 1270.38 543.017 1272.02 545.063C1270.23 541.142 1279.33 537.733 1281.44 535.89C1282.27 535.171 1281.76 534.661 1282.81 533.778C1286.95 530.361 1296.63 522.963 1298.59 520.73C1307.09 511.321 1280.96 530.338 1278.78 531.534C1282.89 528.608 1303.91 509.194 1292.65 516.243C1290.91 517.33 1289.41 521.092 1288.58 521.881C1282.97 527.188 1286.54 522.006 1285.97 522.27C1285.03 522.728 1282.16 527.203 1280.99 527.885C1280.6 528.109 1281.88 525.147 1276.15 529.667C1278.09 526.385 1294.63 514.093 1296.33 511.98C1296.94 511.212 1290.43 512.971 1305.43 503.445C1305.08 503.368 1304.73 503.289 1304.38 503.211C1311.46 496.477 1318.33 489.545 1324.96 482.44C1324.72 483.674 1321.89 488.575 1326.48 483.393C1329.11 480.392 1325.97 481.484 1326.19 481.19C1329.13 478.86 1369.78 430.842 1375.95 419.714C1378.29 416.308 1383.7 405.916 1384.14 405.132C1387.03 400.61 1397.52 384.874 1399.18 381.494C1400.26 379.397 1398.05 380.707 1399.15 378.912C1400.17 377.241 1400.22 379.61 1400.56 379.13C1403.64 375.194 1419.15 342.093 1423.74 334.235C1421.23 339.185 1411.4 364.031 1412.33 363.866C1412.49 363.83 1416.3 358.554 1416.5 357.146C1418.46 355.667 1419 347.419 1421.37 343.937C1421.64 343.534 1422.47 346.04 1426 339.394C1427.23 337.054 1428.77 330.431 1432.92 324.952C1436.66 315.967 1457.22 268.355 1456.23 263.848C1456.17 263.717 1453.13 270.553 1454 265.533C1455.11 258.911 1456.62 265.686 1459.3 258.563C1459.76 257.572 1465.79 237.015 1465.73 236.192C1465.68 229.36 1459.48 247.177 1459.31 246.794C1458.97 246.039 1463.13 230.993 1463.41 230.373C1463.73 229.823 1462.68 242.927 1466.03 227.783C1465.23 229.408 1464.43 231.023 1463.63 232.63C1465.07 225.495 1467.02 225.25 1467.59 223.668C1469.36 218.633 1468.18 212.37 1473.69 204.806C1475.14 202.798 1475.18 206.76 1475.38 206.514C1477.27 204.132 1474.94 199.896 1478.33 196.393C1478.58 196.109 1477.7 206.072 1481.74 189.298C1481.24 190.405 1480.74 191.508 1480.23 192.607C1480.36 189.986 1483.82 173.359 1484.39 171.105C1486.15 164.581 1486.59 170.705 1487.79 163.987C1484.66 167.838 1488.48 147.326 1490.17 148.83C1488.33 145.28 1493.33 128.638 1494.7 120.368C1495.59 115.209 1496.14 104.325 1496.51 102.652C1496.96 100.626 1498.57 101.502 1499.48 97.8344C1499.76 96.6244 1500 85.9916 1502.93 76.6266C1503.5 74.8246 1506.85 71.2625 1507.15 74.8089C1507.68 80.9046 1503.88 91.6245 1505.59 91.7021C1507.45 91.812 1508.32 76.7399 1509.03 72.6621C1512.33 53.8893 1512.99 65.0036 1513.64 64.6031C1515.22 63.5116 1516.31 53.0173 1516.47 52.5771C1517.23 50.814 1517.58 58.3983 1518.43 58.6002C1519.56 58.876 1522.66 48.8894 1522.81 51.244C1523.02 54.6473 1520.3 63.782 1520.31 64.3661C1520.54 72.1336 1524.35 61.9633 1525.94 59.1612C1526.44 58.3191 1526.7 61.9146 1526.9 61.1938C1529.86 50.1585 1523.48 58.4489 1524.62 51.0068C1525.61 44.3577 1526.47 53.1298 1526.59 52.8876C1526.74 52.517 1527.61 44.7027 1528.33 43.5851C1528.75 42.8222 1529.96 63.9269 1531.52 63.2206C1531.91 56.6309 1532.28 49.7233 1532.55 43.4066C1534.56 43.0835 1532.21 52.2014 1532.3 53.3031C1532.5 55.3426 1534.06 49.8723 1534.65 50.1695C1535.03 50.3381 1535.77 57.0383 1536.95 51.1713C1537.36 49.1143 1536.39 44.9855 1538.45 37.9055C1537.87 62.9784 1540.62 45.8472 1541.39 45.1758C1542.16 44.5189 1542.64 56.5953 1543.74 42.0953C1547.61 41.8197 1544.92 42.527 1545.2 46.706C1545.51 51.9266 1548 39.9603 1545.09 58.9297C1547.02 57.9554 1548.39 42.8615 1548.58 42.1424C1548.78 41.4732 1549.34 44.8674 1549.75 43.7148C1554.49 30.0106 1552.03 39.4973 1554.6 35.6206C1554.84 35.2913 1556.78 21.9314 1556.25 32.1793C1555.23 50.6867 1551.79 58.2879 1556.86 62.0819C1560.77 47.9872 1558.65 31.6068 1558.94 27.2448C1559.37 20.7912 1559.94 27.5599 1560.31 26.7906C1560.44 26.5262 1560.79 20.9471 1560.88 20.8756C1565.35 17.3025 1558.95 45.5205 1558.67 54.5025C1559.54 52.0451 1560.39 49.7947 1561.24 47.4603C1560.95 50.667 1560.65 53.9688 1560.33 57.3435C1563.16 41.6477 1560.88 56.7761 1563.77 61.1588C1564.43 62.1344 1564.25 51.5013 1565.07 63.6913C1566.48 54.9608 1566.89 57.6499 1566.72 49.7855C1568.09 49.8622 1567.72 68.3036 1567.56 75.3246C1571.83 50.655 1565.46 63.8225 1570.11 43.1082C1568.81 39.0466 1568.2 49.1321 1568 48.2797C1567.29 45.2611 1569.51 38.5093 1566.76 29.8066C1566.3 28.3902 1564.09 34.0393 1564.87 25.4728C1564.96 24.529 1566.88 19.1495 1566.98 19.2298C1568.09 20.0521 1567.23 25.4577 1567.7 25.7174C1568.15 25.9683 1568.34 19.876 1568.47 19.8611C1569.95 19.7879 1568.64 24.9761 1569.15 24.2472C1570.28 22.695 1575.11 0.985424 1571.97 29.5149C1572.17 5.65468 1570.64 26.4178 1570.47 35.5847C1570.42 37.9274 1571.25 38.5956 1571.25 41.9307C1571.25 46.2237 1570.35 51.1151 1570.29 53.3208C1570.22 55.7889 1573.7 42.1642 1571.03 62.1234C1574.22 51.8101 1573.59 34.6631 1575.8 24.736C1580.26 4.93264 1578.26 38.9912 1578.14 42.3991C1578.14 43.3357 1579.6 40.3265 1579.61 40.9522C1579.67 41.9589 1577.26 60.9519 1577.98 63.1237C1578.75 65.1534 1578.69 55.9516 1579.76 55.4372C1580.52 55.1368 1579.17 78.8111 1581.03 66.1232C1582.35 57.1585 1581.07 41.2621 1584.25 38.8192C1583.39 51.3265 1582.3 64.4236 1581.04 77.2776C1582.99 70.395 1584.88 63.4273 1586.73 56.3745C1585.6 71.107 1582.87 83.4049 1582.7 97.0795C1590.43 64.9776 1584.25 108.023 1584.49 108.512C1584.76 108.632 1589.4 96.3727 1590.18 94.3302C1590.03 105.453 1585.02 141.326 1591.8 121.098C1590.43 124.75 1590.99 134.105 1591.15 134.008C1592.96 133.163 1594.95 113.087 1595.88 116.534C1596.99 120.57 1593.94 125.522 1593.2 131.291C1589.25 160.771 1599.02 153.928 1591.81 183.627C1592.22 183.098 1592.63 182.567 1593.04 182.036C1586.08 213.827 1577.64 245.685 1567.28 277.6C1566.14 290.527 1556.13 324.442 1549.52 339.918C1548.28 343.065 1540.46 358.542 1539.72 359.558C1538.39 361.583 1543.3 349.428 1540.23 354.569C1539.68 355.781 1527.62 381.631 1529.69 380.296C1531.18 377.496 1534.61 368.077 1535.56 366.694C1543.36 357.244 1502.64 436.655 1499.92 440.483C1501.32 439 1502.71 437.507 1504.1 436.003C1501.09 440.829 1498.05 445.59 1494.96 450.286ZM1476.66 186.11C1475.96 182.819 1478.58 176.135 1479.11 171.793C1479.84 165.853 1476.46 154.699 1481 160.131C1479.65 168.93 1478.23 177.435 1476.66 186.11ZM1436.21 307.06C1439.14 301.933 1440.29 307.325 1437.26 311.257C1436.91 311.69 1432.23 313.938 1436.21 307.06ZM1458.37 250.278C1458.34 250.528 1456.73 255.274 1456.63 255.42C1454.07 259.309 1458.93 245.014 1458.37 250.278ZM1313.35 497.965C1317.74 493.509 1312.54 494.67 1310.56 498.171C1310.43 498.394 1313.06 498.257 1313.35 497.965ZM1316.59 494.912C1321.82 493.328 1324.94 482.813 1319.93 488.66C1319.45 489.233 1316.37 494.971 1316.59 494.912ZM1444.92 288.315C1445.6 289.269 1443.04 294.654 1441.91 296.902C1441.11 296.523 1444.15 290.698 1444.92 288.315ZM1376.34 421.303C1376.86 422.026 1388.11 405.121 1387.96 403.316C1386.63 406.359 1375.94 420.793 1376.34 421.303ZM1345.37 463.216C1345.81 462.923 1350.16 457.433 1349.51 457.155C1346.66 459.233 1343.42 464.579 1345.37 463.216ZM1270.74 534.007C1270.53 534.358 1277.34 534.592 1265.67 539.877C1263.97 540.644 1268.52 535.838 1267.91 536.103C1266.64 536.686 1265.7 537.219 1265 537.715C1269.43 533.97 1274.03 530.148 1274.64 529.994C1277.53 529.279 1270.85 533.854 1270.74 534.007ZM1227.66 567.431C1227 568.662 1220.2 572.304 1218.54 572.928C1218.25 573.032 1218.46 570.802 1215.54 572.655C1213.19 574.138 1217.73 573.693 1212.87 576.126C1207.95 578.564 1213.67 573.8 1213.2 573.951C1212.59 574.173 1205.61 579.039 1205.31 577.947C1205.1 577.161 1213.26 573.216 1215.1 571.928C1217.46 570.3 1213.8 570.89 1218.06 568.726C1220.73 567.357 1220.51 570.23 1221.11 570.01C1221.64 569.836 1229.9 563.214 1227.64 567.433C1227.64 567.433 1227.65 567.432 1227.66 567.431ZM1263.8 538.733C1264.11 538.409 1264.49 538.07 1265 537.715C1264.6 538.054 1264.2 538.397 1263.8 538.733ZM1473.57 203.13C1472.11 205.932 1473.45 196.861 1475.19 193.675C1475.96 193.809 1473.81 202.697 1473.57 203.13ZM1260.61 543.461C1253.27 548.001 1257.98 543.691 1263.8 538.733C1262.12 540.531 1263.07 541.916 1260.61 543.461ZM1416.5 357.146C1416.18 357.391 1415.83 357.472 1415.41 357.292C1416.29 356.662 1416.57 356.705 1416.5 357.146ZM1406.19 374.733C1403.98 381.53 1410.86 369.034 1409.93 368.61C1409.59 368.481 1406.29 374.471 1406.19 374.733ZM1307.46 503.377C1308.02 503.034 1303.71 512.783 1311.94 500.758C1306.09 505.626 1311.6 499.794 1311.25 499.609C1310.33 499.099 1301.74 508.484 1299.33 509.979C1298.95 512.846 1305.67 504.494 1307.45 503.388C1307.46 503.385 1307.46 503.381 1307.46 503.377ZM1138.33 610.521C1139.57 608.863 1144.87 607.122 1148.38 605.73C1147.17 607.42 1141.86 609.209 1138.33 610.521ZM226.383 420.182C241.562 440.996 239.932 446.094 228.049 425.748C227.815 425.35 225.137 419.113 226.383 420.182ZM379.42 572.399C380.447 575.318 373.487 571.397 369.571 567.876C368.68 567.085 366.149 563.072 370.485 565.45C369.04 567.33 375.064 572.282 379.42 572.399ZM1257.38 547.315C1256.08 549.843 1249.2 553.503 1245.67 555.612C1247.18 553.343 1254.21 549.093 1257.38 547.315ZM275.774 487.887C277.464 489.957 279.923 490.117 279.714 489.686C278.796 487.757 274.443 484.995 275.774 487.887ZM1277.5 532.492C1278.28 532.89 1270.61 539.77 1268.86 538.657C1270.72 537.453 1277.01 532.277 1277.5 532.492ZM1145.15 608.419C1146.8 608.179 1139.28 611.976 1136.76 612.521C1136.66 611.689 1144.07 608.598 1145.15 608.419ZM306.526 517.951C308.193 519.696 312.624 523.725 313.574 523.643C314.746 523.56 308.039 517.939 306.526 517.951ZM110.84 111.76C111.077 111.366 114.955 120.592 115.241 125.122C115.724 133.621 110.604 111.934 110.84 111.76ZM258.438 469.216C254.915 462.373 259.001 469.832 260.1 468.492C256.923 464.609 249.138 454.566 253.245 462.448C254.05 463.983 257.021 467.331 258.438 469.216ZM262.503 474.965C263.454 475.249 268.343 478.297 265.158 474.767C263.689 473.137 259.923 471.637 262.503 474.965ZM123.565 171.281C123.616 178.534 117.363 146.481 117.546 145.493C117.583 144.978 117.646 144.632 117.717 144.428C117.009 143.351 115.71 137.266 116.752 136.321C117.012 138.181 118.114 143.141 118.102 143.74C118.097 143.999 118.082 144.195 118.055 144.334C119.466 146.358 123.414 169.628 123.565 171.281ZM135.541 224.225C131.172 216.929 134.422 214.467 134.724 215.133C138.607 223.364 134.373 218.474 134.32 218.775C134.277 219.446 137.245 225.194 135.534 224.2C135.537 224.208 135.539 224.216 135.541 224.225ZM125.526 182.367C125.396 182.058 123.919 175.293 123.916 174.993C123.844 169.188 128.029 188.304 125.526 182.367ZM1192.75 589.991C1188.37 591.802 1191.88 588.478 1194.89 587.476C1195.14 587.399 1196.62 588.378 1192.75 589.991ZM265.235 477.592C265.665 478.783 283.528 499.768 284.073 497.087C282.042 495.695 262.044 471.536 265.235 477.592ZM428.778 602.306C424.335 600.171 430.026 600.713 432.093 602.481C432.861 603.141 429.901 602.843 428.778 602.306ZM1289.36 525.168C1292.55 521.075 1294.1 524.523 1289.91 526.409C1289.74 526.482 1289.23 525.328 1289.36 525.168ZM394.484 583.209C409.862 590.335 403.208 594.113 385.168 581.2C385.902 581.312 386.637 581.422 387.371 581.531C366.128 567.604 386.052 580.376 391.635 583.097C393.744 584.154 392.549 582.27 394.473 583.194C394.477 583.199 394.48 583.204 394.484 583.209ZM452.468 612.974C466.028 623.367 437.966 608.72 429.705 605.22C438.391 607.269 448.613 612.068 435.343 604.058C456.016 612.906 446.824 610.632 447.562 611.167C448.478 611.742 451.894 612.531 452.468 612.974ZM413.247 594.811C412.341 594.504 406.464 590.412 404.153 589.315C407.99 589.72 419.211 596.881 413.247 594.811ZM153.666 277.609C152.349 277.434 151.014 276.332 149.536 270.704C150.683 272.208 152.383 275.522 153.666 277.609ZM1483.99 182.085C1484.95 178.266 1487.07 170.593 1485.34 172.709C1485.19 172.96 1483.32 181.929 1483.99 182.085ZM321.74 534.739C322.171 535.436 338.726 548.716 333.798 543.138C332.246 541.545 317.371 529.437 321.74 534.739ZM246.294 455.546C247.367 456.99 252.005 462.541 252.323 462.474C253.378 462.268 247.5 455.626 246.294 455.546ZM1489.44 162.644C1489.68 162.171 1491.89 149.927 1491.05 151.15C1489.5 153.52 1488.66 164.352 1489.44 162.644ZM1178.49 600.119C1177.6 600.588 1175.85 599.986 1175.54 600.119C1174.82 600.508 1158.33 608.432 1164.04 604.071C1165.05 603.473 1189.06 592.841 1192.09 591.299C1194.08 592.293 1183.3 595.82 1180.91 597.137C1180.49 597.376 1180.85 598.847 1178.49 600.108C1178.49 600.112 1178.49 600.115 1178.49 600.119ZM142.804 249.163C141.45 248.824 134.402 228.046 135.821 227.837C138.091 235.072 140.419 242.18 142.804 249.163ZM146.112 260.003C146.848 264.767 143.103 254.278 142.442 250.979C143.146 250.732 145.998 259.325 146.112 260.003ZM268.861 489.306C270.491 490.713 267.33 484.722 268.551 485.607C269.32 486.183 272.048 490.134 273.451 490.898C273.856 491.106 271.747 486.493 270.769 485.489C269.378 484.061 269.757 486.313 268.303 484.688C263.504 479.305 259.866 473.671 255.656 468.547C255.267 468.078 257.591 472.275 254.316 468.246C253.808 467.618 251.758 463.088 247.763 458.244C236.034 449.476 233.312 439.219 222.238 425.128C222.277 425.934 228.926 437.514 229.363 438.136C237.064 450.562 253.324 471.666 263.617 483.257C266.229 486.249 265.588 484.244 266.738 485.504C267.648 486.494 265.422 486.336 268.861 489.306ZM1484.36 184.319C1486.29 182.838 1486.79 176.153 1487.76 171.988C1486.09 173.17 1485.62 180.391 1484.36 184.319ZM181.437 351.553C182.392 353.427 184.814 359.428 185.471 359.688C186.312 360.044 182.569 351.518 181.437 351.553ZM1081.13 636.28C1080.94 636.381 1076 637.709 1075.8 637.711C1071.08 637.771 1085.87 633.795 1081.13 636.28ZM960.35 661.177C956.483 661.9 952.598 662.889 951.125 661.811C953.645 661.691 960.69 660.252 960.35 661.177ZM787.696 671.543C788.514 673.201 776.435 672.032 774.162 671.838C775.018 671.132 787.093 670.367 787.696 671.543ZM149.086 280.13C146.789 273.358 144.944 275.59 144.512 270.888C144.451 270.108 148.562 266.173 149.312 274.261C149.455 275.711 146.442 270.898 149.086 280.13ZM382.114 579.314C380.038 579.34 375.483 576.176 372.374 574.095C373.51 573.873 379.793 578.026 382.114 579.314ZM1494.95 140.78C1497.08 137.806 1498.6 122.166 1496.94 125.817C1496.73 126.359 1495.41 138.682 1494.95 140.78ZM1245.66 561.362C1241.12 565.804 1252.14 559.002 1254.77 555.694C1253.32 556.811 1245.97 561.08 1245.66 561.362ZM829.565 672.106C829.253 672.167 822.309 672.188 821.996 672.13C816.288 670.98 835.921 670.909 829.565 672.106ZM1001 656.738C998.724 658.2 982.642 660.12 978.875 659.662C982.132 657.753 1003.77 655.017 1001 656.738ZM160.21 307.6C158.263 302.857 156.774 298.164 155.485 293.53C156.608 294.212 160.573 306.894 160.21 307.6ZM804.028 672.554C803.654 672.549 803.289 672.456 802.932 672.447C803.305 672.481 803.671 672.52 804.028 672.554ZM210.137 409.524C212.058 413.285 212.908 411.724 212.812 411.483C211.576 408.548 207.973 405.25 210.137 409.524ZM1487.65 180.085C1489.33 178.95 1489.84 171.671 1491.02 167.632C1489.7 168.607 1488.25 176.819 1487.65 180.085ZM467.84 622.169C472.259 625.512 451.463 619.288 447.694 616.516C447.726 615.611 467.159 621.782 467.84 622.169ZM1262.74 552.133C1263.73 552.787 1270.2 546.433 1268.35 547.144C1267.19 547.607 1262.15 551.736 1262.74 552.133ZM438.018 611.619C436.033 611.102 432.2 608.171 433.978 608.265C436.249 608.388 438.529 611.744 438.018 611.619ZM289.295 512.081C289.793 512.85 299.01 520.118 296.283 515.985C294.402 513.125 292.935 513.875 292.364 513.33C291.708 512.763 279.719 498.035 289.295 512.081ZM584.964 655.799C580.374 655.351 575.018 653.788 570.325 652.831C572.366 652.594 583.208 654.577 584.964 655.799ZM1234.11 571.57C1235.36 571.524 1260.14 555.453 1245.41 563.586C1244.59 564.114 1230.64 572.203 1234.11 571.57ZM149.086 280.13C149.377 280.982 149.678 281.976 149.985 283.142C149.62 282.006 149.338 281.002 149.086 280.13ZM180.246 355.274C178.838 354.191 182.165 361.504 183.704 363.603C184.86 363.788 180.429 355.435 180.246 355.274ZM569.742 653.835C566.941 653.71 562.144 652.177 558.807 651.474C559.527 650.898 568.718 652.872 569.742 653.835ZM765.184 675.071C759.555 674.524 752.63 674.528 752.496 675.421C752.384 675.277 752.115 675.121 751.666 674.957C751.213 674.798 745.174 675.026 742.571 674.621C726.935 672.483 803.192 674.992 758.897 676.584C760.994 676.084 763.09 675.58 765.184 675.071ZM1022.92 654.625C1026.19 655.076 1034.5 651.857 1032.17 651.923C1030.55 651.998 1019.64 654.19 1022.92 654.625ZM902.925 672.189C903.894 672.315 912.481 670.805 912.646 670.204C907.638 670.057 898.536 671.634 902.925 672.189ZM1046.69 650.636C1048.64 650.342 1050.65 648.036 1050.4 648.016C1048.33 647.865 1043.26 650.442 1046.69 650.636ZM149.744 295.715C150.314 298.703 154.915 307.01 156.753 308.439C156.684 308.872 156.787 309.927 157.155 311.783C157.153 311.778 157.15 311.773 157.148 311.767C156.891 314.408 187.884 382.837 168.897 336.237C168.318 334.752 168.236 337.184 165.792 331.156C165.632 330.756 166.328 330.22 165.838 328.984C164.689 326.218 159.127 311.45 157.313 308.637C157.45 308.553 157.512 308.303 157.476 307.84C157.144 303.756 149.29 293.444 149.744 295.715ZM885.777 673.614C887.543 673.817 893.037 673.127 893.55 672.332C890.799 672.173 881.682 673.147 885.777 673.614ZM1236.52 573.71C1239.77 572.444 1246.42 566.764 1243.89 567.668C1242.36 568.248 1232.81 575.194 1236.52 573.71ZM940.819 668.2C920.467 669.585 935.993 668.82 933.011 670.265C935.621 669.586 938.224 668.898 940.819 668.2ZM124.211 205.691C124.775 208.825 121.711 205.778 121.975 202.07C122.063 200.908 123.892 203.94 124.211 205.691ZM95.4989 61.5348C93.9442 64.5319 93.3014 51.0175 95.3031 56.0571C95.3773 56.296 95.5437 61.3329 95.4989 61.5348ZM112.467 163.083C114.214 164.897 114.664 166.269 115.751 172.52C113.336 163.504 114.056 172.057 112.467 163.083ZM752.553 675.564C752.518 675.51 752.489 675.47 752.496 675.421C752.535 675.471 752.551 675.517 752.553 675.564ZM1064.9 645.707C1067.62 646.151 1074.4 644.209 1072.08 643.681C1071.85 643.64 1065.69 644.653 1064.9 645.707ZM156.753 308.439C156.815 308.054 156.998 308.165 157.313 308.637C157.184 308.716 157.001 308.635 156.753 308.439ZM1028.26 655.387C1028.33 654.535 1017.76 656.404 1017.35 656.569C1011.57 659.194 1023.95 656.387 1028.26 655.387ZM1293.33 534.348C1293.69 533.941 1289.65 534.489 1288.53 536.473C1287.66 538.017 1291.98 535.897 1293.33 534.348ZM107.653 142.701C106.975 139.314 106.041 134.494 106.873 133.41C107.155 135.745 108.398 142.629 107.653 142.701ZM94.8231 66.9193C96.5593 70.761 97.9375 80.3316 98.6581 86.2771C97.104 86.6842 95.6874 70.645 94.8231 66.9193ZM147.093 286.875C147.111 287.145 149.611 295.236 150.214 293.814C151.008 291.553 146.83 284.487 147.093 286.875ZM1280.06 543.495C1277.57 546.336 1285.7 542.892 1287.67 539.073C1288.69 537.144 1280.49 543.041 1280.06 543.495ZM1086.43 641.197C1091.05 639.197 1078.87 641.652 1077.49 643.161C1079.74 642.624 1084.79 641.912 1086.43 641.197ZM917.493 673.788C933.822 675.39 924.51 670.461 921.738 671.254C921.348 671.368 917.096 673.752 917.493 673.788ZM1507.65 102.595C1507.55 100.243 1504.71 108.544 1505.58 109.787C1506.13 110.571 1507.72 104.112 1507.65 102.595ZM674.114 671.808C674.789 671.86 675.46 671.911 676.123 671.962C675.622 671.969 674.966 671.926 674.114 671.808ZM1130.98 630.927C1118.99 630.516 1121.25 633.322 1120.33 633.641C1118.34 634.288 1113.37 634.716 1109.71 636.142C1113.83 634.239 1117.89 632.308 1121.96 630.324C1118.58 631.378 1088.73 639.27 1088.25 640.009C1087.65 641.286 1096.89 638.13 1097.18 638.118C1097.61 638.122 1099.93 640.419 1100.83 640.249C1102.36 640.067 1126.87 631.824 1130.98 630.927ZM950.863 669.613C948.259 669.595 947.392 668.547 946.236 668.964C945.842 669.106 945.909 670.198 944.555 670.645C946.661 670.308 948.764 669.964 950.863 669.613ZM1148.02 620.013C1151.43 620.099 1138.22 624.805 1137.73 624.793C1135.18 624.817 1145.27 619.981 1148.02 620.013ZM1033.73 655.186C1034.26 655.167 1045 653.137 1044.74 652.422C1041.82 652.566 1027.52 655.562 1033.73 655.186ZM942.85 670.923C938.985 671.261 931.562 670.968 932.576 672.507C932.581 672.507 932.587 672.506 932.593 672.506C936.021 671.994 939.44 671.467 942.85 670.923ZM1271.96 553.946C1279.1 551.906 1274.49 551.247 1269.05 554.176C1268.23 556.218 1270.79 554.279 1271.96 553.946ZM1290.77 541.953C1292.63 541.198 1307.57 527.896 1304.32 528.797C1303.2 529.158 1295.23 537.489 1294.74 537.727C1294.04 538.121 1295.88 534.637 1291.36 538.72C1291.97 538.899 1290.16 542.245 1290.77 541.953ZM1277.58 551.856C1284.32 549.256 1283.29 545.376 1279.17 548.535C1277.55 549.759 1276.62 552.219 1277.58 551.856ZM1254.38 567.957C1256.65 566.861 1262.41 563.539 1265.42 559.895C1260.39 563.337 1255.29 566.694 1250.12 569.973C1249.91 570.939 1252.4 568.921 1254.39 567.948C1254.39 567.951 1254.38 567.954 1254.38 567.957ZM80.1702 25.0853C79.7717 31.0336 77.9122 17.6269 78.1184 17.0051C78.7848 15.2199 80.3435 22.4376 80.1702 25.0853ZM1546.38 62.1357C1546.97 60.5425 1548.45 59.6163 1548.11 55.9141C1546.73 59.4607 1545.34 62.9797 1543.94 66.4712C1545.92 69.5303 1545.74 63.8799 1546.38 62.1357ZM1556.2 49.1396C1556.21 49.6666 1560.03 47.1877 1557.01 53.5512C1555.02 57.6475 1555.75 33.8434 1557.63 29.5408C1557.97 34.4279 1556.18 44.8134 1556.2 49.1396ZM1575.03 7.85961C1575.33 7.59905 1575.09 17.051 1574.8 18.1114C1573.33 23.7278 1573.42 9.33099 1575.03 7.85961ZM1572.04 37.5688C1573.1 33.3087 1572.7 42.9227 1572.03 45.7067C1571.35 45.9242 1571.88 38.2337 1572.04 37.5688ZM36.7815 90.6192C35.1089 95.731 40.8944 99.1628 38.7509 92.0488C38.6497 91.7094 36.868 90.3994 36.7815 90.6192ZM1577.95 17.3277C1576.94 21.6828 1577.21 11.8929 1577.8 8.97941C1578.48 8.75671 1578.1 16.6707 1577.95 17.3277ZM31.6019 94.822C30.8516 101.393 36.2731 98.2721 36.3829 97.4569C36.7911 94.1077 32.8766 83.2724 31.994 81.0293C35.2991 97.7054 31.9714 91.7072 31.6019 94.822ZM39.7235 122.929C41.3194 128.498 39.9795 113.795 37.9327 111.23C38.4751 114.079 39.2621 121.352 39.7235 122.929ZM44.4942 158.443C44.9072 161.586 46.3287 170.803 47.5575 172.119C46.6743 168.842 45.6767 159.569 44.4942 158.443ZM43.2364 165.973C43.0231 171.03 46.8178 171.421 44.599 166.124C44.5132 165.918 43.2674 165.783 43.2364 165.973ZM47.9555 193.449C47.299 196.991 51.5846 199.82 50.4557 194.624C50.1161 193.08 48.0377 193.071 47.9555 193.449ZM26.6288 103.672C26.7466 108.38 30.1858 113.875 28.8882 104.038C29.8145 107.427 30.7508 110.795 31.6971 114.143C30.9964 101.169 27.7311 102.603 27.2897 98.8807C26.6934 93.6532 29.6109 93.628 30.6622 94.5366C28.2419 90.5236 25.5928 72.359 23.9847 62.2735C24.3887 71.3131 25.197 86.3464 26.1458 95.5959C26.4065 98.2142 27.5766 100.602 27.8352 102.813C28.2474 106.356 26.6292 103.408 26.6259 103.654C26.6269 103.66 26.6278 103.666 26.6288 103.672ZM56.7692 228.895C57.7563 238.802 59.5057 231.805 57.5123 226.771C57.4077 226.567 56.7414 228.638 56.7692 228.895ZM1589.54 5.32553C1587.16 18.1109 1586 8.75614 1586.8 35.5455C1585.64 24.2506 1585.34 34.8068 1584.68 32.5645C1584.16 30.7739 1585.24 24.2763 1583.59 27.9698C1585.5 23.1533 1586.61 1.10491 1586.88 0.0854833C1586.88 0.0947953 1586.88 0.104107 1586.88 0.113419C1587.05 -0.474523 1590.28 1.21737 1589.54 5.32553ZM35.4532 160.32C31.8923 164.305 38.7969 164.169 36.6037 170.985C43.3287 178.076 31.946 148.467 35.5871 143.722C41.6091 177.582 35.565 120.537 33.662 145.4C32.3311 125.356 31.6695 139.115 30.2872 136.236C28.776 132.96 27.8765 122.23 26.3969 122.996C26.3979 123.002 26.3989 123.008 26.3999 123.014C27.6348 129.533 28.958 136.274 30.3512 143.081C32.4907 135.808 34.0664 149.851 32.2511 155.02C33.3157 156.795 34.3831 158.563 35.4532 160.32ZM31.5423 121.809C31.5528 122.453 34.5854 136.727 35.1299 135.77C35.1123 133.445 31.1349 113.521 31.5423 121.809ZM21.3029 57.904C21.9464 63.1228 22.3437 71.1962 24.0162 73.812C23.3176 68.6825 22.9453 60.5847 21.3029 57.904ZM84.2621 323.768C87.6997 329.857 80.4998 309.837 81.4758 316.02C81.4876 316.246 84.0939 323.49 84.2621 323.768ZM39.2115 175.139C39.3691 182.033 42.7558 178.025 40.6403 173.352C40.5167 173.081 39.2036 174.82 39.2115 175.139ZM1589.33 15.8163C1590.34 16.3849 1588.17 34.8437 1587.86 38.0457C1587.12 36.1636 1588.23 15.2442 1589.33 15.8163ZM16.3773 49.1484C13.9765 60.1098 20.0634 73.5335 20.1863 75.0429C20.3009 76.5699 18.3843 74.4126 18.3892 74.7633C18.3569 75.3664 20.9039 92.2083 21.154 92.9586C21.3263 93.5211 23.1064 90.1787 24.3233 93.5052C21.9207 86.7337 18.7477 57.0133 18.3655 55.4196C18.0213 54.2296 16.7845 63.6482 16.3795 49.1666C16.3787 49.1604 16.378 49.1546 16.3773 49.1484ZM20.2261 78.91C20.5817 74.6449 22.3398 86.3159 22.4265 89.2074C22.5773 95.6234 20.17 79.472 20.2261 78.91ZM23.5672 107.085C23.5573 108.451 25.3179 120.27 26.5353 121.07C26.9252 115.327 23.5763 104.033 23.5672 107.085ZM51.8308 238.209C52.8023 241.267 54.413 249.887 55.4405 250.102C54.4257 247.109 52.8453 238.457 51.8308 238.209ZM1591.34 79.7493C1592.72 74.647 1591.61 86.7182 1590.79 90.1322C1590.17 90.2532 1591.23 80.1944 1591.34 79.7493ZM30.8585 178.122C30.7468 179.641 40.3025 217.412 42.1429 222.109C41.4197 217.218 32.6912 179.729 32.2156 178.442C32.0124 177.985 30.8521 177.884 30.8585 178.122ZM15.6609 97.5764C13.7942 94.3146 15.0656 91.7968 15.0206 91.356C14.5817 87.0323 13.0117 78.051 14.5835 79.8536C15.1127 87.6362 19.3714 104.057 15.6609 97.5764ZM46.6591 242.496C50.6781 255.021 45.2818 230.302 44.8199 233.839C44.7891 234.075 46.238 241.206 46.6591 242.496ZM29.5941 174.112C27.8462 171.853 21.3617 133.74 20.5063 127.944C23.4041 132.777 22.7021 137.569 24.1755 144.852C24.5772 146.817 25.3034 146.134 25.3446 146.345C26.0312 149.742 24.5926 147.376 24.9798 149.477C25.1698 150.904 31.8845 177.726 29.5941 174.112ZM14.4331 95.7379C13.2878 93.6872 9.64004 70.1662 9.78503 69.348C10.326 62.1053 14.3125 93.7148 14.4331 95.7379ZM28.5608 177.854C25.3905 174.444 23.1502 155.651 26.8874 168.039C27.239 169.22 27.3077 174.507 28.5608 177.854ZM44.1298 241.737C44.2205 242.405 47.517 255.693 48.3169 255.693C48.0099 253.781 42.8803 234.425 44.1298 241.737ZM39.8041 235.488C39.9098 235.804 40.4447 232.3 41.972 238.611C42.1015 239.13 40.7901 240.562 43.558 248.199C44.1222 249.746 45.8498 251.887 45.8633 251.692C45.9057 242.921 34.7645 219.817 39.8041 235.488ZM13.0718 95.4997C12.5896 96.8782 10.1192 94.1014 10.7234 91.1578C10.9863 89.8956 12.5145 91.9566 13.0718 95.4997ZM55.8652 283.189C52.1911 275.913 59.8397 300.01 60.6077 301.021C61.0442 300.051 56.2021 283.959 55.8652 283.189ZM1599.27 93.0335C1599.27 93.0274 1599.27 93.0213 1599.27 93.0152C1598.16 99.4798 1597.66 95.3207 1597.59 95.6227C1594.29 109.201 1597.04 105.827 1597.02 108.018C1596.95 112.778 1594.27 111.699 1594.24 119.855C1594.48 106.357 1593.43 118.53 1592.38 118.749C1588.15 119.581 1596.81 101.552 1596.74 95.0856C1596.74 94.1784 1594.58 100.614 1594.51 98.2736C1594.32 90.7415 1603.4 68.0508 1599.27 93.0335ZM10.2306 89.0286C8.51166 85.8886 6.63691 63.2848 8.42469 69.1155C8.64869 69.9481 12.5759 93.1853 10.2306 89.0286ZM747.839 765.732C742.243 766.602 755.105 768.213 757.515 767.447C758.708 767.076 750.293 765.357 747.839 765.732ZM838.212 770.365C844.864 769.974 851.7 765.398 843.479 766.339C842.608 766.442 837.437 769.786 838.212 770.365ZM404.904 700.276C410.927 704.567 411.661 701.739 406.783 699.687C405.064 698.957 404.715 700.14 404.904 700.276ZM667.278 762.784C667.963 762.955 675.998 763.47 675.76 762.78C672.832 762.147 662.855 761.688 667.278 762.784ZM402.638 699.731C406.766 700.97 400.863 696.136 395.263 695.812C397.751 696.768 402.21 699.605 402.638 699.731ZM25.4668 193.259C27.3951 196.438 29.3069 206.143 30.8538 211.544C29.4967 212.523 26.6234 197.215 25.4668 193.259ZM810.061 769.115C816.316 767.985 802.893 767.206 804.129 768.616C804.3 768.695 809.815 769.165 810.061 769.115ZM212.26 568.118C216.261 570.979 206.539 559.02 208.29 563.18C208.381 563.382 212.034 567.967 212.26 568.118ZM169.261 517.474C171.214 520.595 180.949 532.536 177.884 527.306C177.391 526.524 170.077 517.206 169.261 517.474ZM1598.06 108.55C1599.9 106.819 1597.96 117.798 1597.44 119.3C1597.24 119.911 1595.71 110.674 1598.06 108.55ZM448.339 717.692C451.9 718.772 460.899 722.24 462.772 721.978C458.398 720.733 447.736 715.748 448.339 717.692ZM781.55 769.102C786.975 770.868 796.27 770.716 793.976 768.478C783.726 768.588 795.239 770.513 781.55 769.102ZM379.925 691.261C382.589 692.698 385.598 691.749 385.333 691.512C382.808 689.252 377.596 689.199 379.925 691.261ZM592.919 754.33C592.94 755.272 602.271 756.314 601.12 755.533C600.752 755.284 592.902 753.583 592.919 754.33ZM58.788 310.863C59.4264 315.177 54.2955 303.133 53.9825 299.094C54.6922 296.869 58.6795 310.349 58.788 310.863ZM307.37 649.142C306.222 650.061 319.358 657.694 314.96 653.493C313.856 652.457 307.752 648.862 307.37 649.142ZM196.326 555.09C204.212 561.738 176.969 528.571 182.813 538.39C183.18 539.174 195.586 554.593 196.326 555.09ZM153.454 500.045C154.323 501.553 150.085 503.542 147.359 496.601C147.001 495.695 150.54 498.628 150.32 497.833C150.158 497.41 141.764 484.073 141.298 483.484C140.761 482.899 140.057 484.482 139.477 483.909C138.819 483.278 134.476 474.34 131.88 470.178C126.868 462.187 125.323 461.895 124.906 461.242C123.712 459.305 122.467 455.586 120.108 451.591C108.113 431.676 91.0739 400.493 86.0525 382.979C91.8484 398.064 99.7267 411.474 107.709 425.62C103.186 422.742 120.819 445.371 110.234 432.306C113.657 438.959 149.913 495.614 153.443 500.03C153.447 500.035 153.45 500.04 153.454 500.045ZM864.485 770.693C860.455 772.464 881.457 771.067 883.132 769.115C880.348 769.055 864.966 770.515 864.485 770.693ZM768.003 775.745C766.058 775.975 764.153 779.017 753.975 777.213C753.966 777.213 753.956 777.213 753.947 777.213C750.973 776.682 754.395 776.03 753.855 775.75C753.656 775.641 744.403 773.858 752.13 773.834C763.908 773.761 753.181 776.136 759.46 776.319C760.234 776.351 772.135 774.917 771.446 774.535C771.376 774.493 767.802 774.784 767.215 774.622C764.999 774.015 766.101 773.082 765.788 773.031C764.774 772.923 745.953 774.076 743.263 772.537C742.405 772.121 773.206 771.805 774.382 771.985C775.137 772.145 774.783 774.784 775.565 775.054C775.971 775.2 788.343 774.319 789.942 774.557C790.407 774.629 790.762 774.706 791.023 774.77C789.784 774.222 794.3 774.083 797.369 774.308C798.932 774.423 800.123 774.633 800.008 774.943C799.935 775.08 798.786 775.137 797.369 775.15C795.047 775.171 791.998 775.066 791.827 775.026C791.706 774.998 791.601 774.961 791.503 774.935C793.106 775.98 766.989 775.669 772.603 777.203C765.006 777.898 773.713 775.048 768.003 775.745ZM731.429 776.314C732.227 776.068 733.024 775.822 733.82 775.576C720.452 775.73 705.131 773.583 689.722 772.476C685.81 772.19 690.187 774.219 685.09 773.372C681.005 772.691 676.591 770.743 678.851 770.575C679.401 770.537 687.678 772.216 691.872 772.398C704.246 772.933 701.201 771.24 701.929 771.255C702.724 771.268 710.41 772.76 714.646 772.934C725.292 773.364 730.186 772.71 744.635 774.37C736.236 775.045 740.744 777.303 731.429 776.314ZM253.3 613.685C252.293 614.057 245.804 607.45 243.204 605.311C244.201 604.984 250.641 611.653 253.3 613.685ZM1468.86 486.252C1469.29 483.102 1456.63 500.187 1460.9 496.362C1461.86 495.539 1467.33 488.458 1468.86 486.252ZM1408.02 559.503C1406.37 561.865 1415.03 554.264 1414.15 553.465C1413.87 553.235 1408.24 559.213 1408.02 559.503ZM558.387 755.194C557.865 755.146 550.501 753.301 550.287 753.17C545.691 750.626 569.947 756.438 558.387 755.194ZM1321.63 636.848C1329.14 630.36 1304.54 647.065 1312.7 642.902C1313.12 642.714 1321.28 637.182 1321.63 636.848ZM1287.27 659.976C1289.27 658.711 1298.43 653.474 1298.29 652.995C1298.07 652.284 1287.64 658.294 1287.27 659.976ZM375.593 695.479C375.857 697.525 363.999 690.198 359.643 688.105C359.409 686.094 371.136 693.589 375.593 695.479ZM455.636 729.698C400.672 711.031 413.921 712.458 459.164 730.014C458.886 731.067 459.123 730.789 455.636 729.698ZM386.58 701.883C388.963 701.8 394.849 704.847 398.91 706.723C397.865 707.103 389.59 703.088 386.58 701.883ZM1484.71 466.701C1483.92 470.594 1473.51 483.103 1474.64 480.379C1474.95 479.811 1484.83 465.203 1484.71 466.701ZM553.426 755.674C554.392 757.59 537.766 753.37 536.579 752.683C531.743 750.117 551.979 755.814 553.426 755.674ZM302.626 655.205C299.303 654.552 292.322 648.968 287.665 645.6C290.428 646.241 298.601 652.512 302.626 655.205ZM337.111 677.827C336.771 677.704 329.964 673.587 329.693 673.342C324.722 668.97 343.953 680.578 337.111 677.827ZM1612.72 85.4573C1612.73 85.7148 1611.95 91.3519 1611.88 91.5388C1610.03 96.4213 1612.36 79.5113 1612.72 85.4573Z" fill="url(#paint0_linear_2420_27747)"></path>
<defs>
<linearGradient id="paint0_linear_2420_27747" x1="803.869" y1="23.7881" x2="806.453" y2="852.78" gradientUnits="userSpaceOnUse">
<stop stop-color="#00FBFF" stop-opacity="0"></stop>
<stop offset="0.192138" stop-color="#00FBFF"></stop>
<stop offset="0.634369" stop-color="#089AEF"></stop>
<stop offset="1" stop-color="#08B1EF" stop-opacity="0"></stop>
</linearGradient>
</defs>
</svg>