<?xml version="1.0" encoding="UTF-8"?>
<svg id="Artwork" xmlns="http://www.w3.org/2000/svg" version="1.1" viewBox="0 0 799.4 300.5">
  
  <defs></defs>
  <g id="Logo">
    <path id="elea" fill="none" d="M699.4,112.6v22.9c-.8-1.3-1.6-2.5-2.5-3.7-5-7-11.3-12.5-18.9-16.4-7.6-3.9-16.4-5.9-26.4-5.9s-24.9,3.3-35,9.9c-10.1,6.6-18,15.8-23.5,27.6-5.6,11.8-8.4,25.6-8.4,41.4s1.6,22.6,4.9,32.2c3.3,9.7,8,18.1,14,25.2,6,7.1,13.1,12.5,21.5,16.2,8.3,3.7,17.4,5.5,27.5,5.5s24.5-3.3,33.3-10c5.3-4.1,9.8-9.1,13.5-15.1v23.2h47.4V112.6h-47.4ZM695.2,211.5c-2.8,6.3-6.8,11.1-11.9,14.4-5.1,3.3-11.1,4.9-18,4.9s-12.5-1.6-17.6-4.9c-5.1-3.3-9.1-8.1-11.9-14.4s-4.2-14-4.2-23,1.4-16.6,4.2-22.8c2.8-6.2,6.8-10.9,11.9-14.1,5.1-3.2,11-4.8,17.6-4.8s9.8.9,13.9,2.7c4.1,1.8,7.6,4.5,10.8,8,3.1,3.5,5.5,7.9,7,13,1.6,5.2,2.3,11.2,2.3,18s-1.4,16.7-4.2,23ZM563.6,189.7c0-16.4-3.1-30.6-9.3-42.8-6.2-12.1-15.2-21.3-26.8-27.8-11.7-6.4-25.8-9.6-42.2-9.6s-31.1,3.4-42.9,10.1c-11.8,6.7-20.8,16-27,27.9-6.2,11.9-9.3,25.7-9.3,41.3s3.2,29.4,9.8,41.4c6.5,12,15.8,21.4,27.8,28s26.7,10,44.1,10,26.6-2.4,37.2-7.2c10.6-4.8,19.1-11.4,25.5-19.8,6.4-8.4,10.5-17.9,12.3-28.5h-42.6c-1,3.6-2.9,7-5.7,10.1-2.8,3.1-6.4,5.5-10.6,7.2-4.3,1.7-9.4,2.6-15.2,2.6s-13-1.4-18.8-4.4c-5.7-2.9-10.2-7.4-13.3-13.6-2.2-4.3-3.7-9.5-4.3-15.6h111.4v-9.3ZM469.2,146.5c5.3-3,11.2-4.5,17.8-4.5s13.1,1.6,18.3,4.8c5.2,3.2,9.3,7.9,12.3,14.1,1.6,3.4,2.8,7.2,3.6,11.4h-68.1c.8-4.4,1.9-8.3,3.5-11.5,3.1-6.5,7.3-11.3,12.6-14.3ZM333.7,265.7V38.9h47.4v226.8h-47.4ZM309.1,189.7c0-16.4-3.1-30.6-9.3-42.8-6.2-12.1-15.1-21.3-26.8-27.8-11.7-6.4-25.8-9.6-42.2-9.6s-31.1,3.4-42.9,10.1c-11.8,6.7-20.8,16-27,27.9-6.2,11.9-9.3,25.7-9.3,41.3s3.2,29.4,9.8,41.4c6.5,12,15.8,21.4,27.8,28s26.7,10,44.1,10,26.6-2.4,37.2-7.2c10.6-4.8,19.1-11.4,25.5-19.8,6.4-8.4,10.5-17.9,12.3-28.5h-42.6c-1,3.6-2.9,7-5.7,10.1-2.8,3.1-6.4,5.5-10.7,7.2-4.3,1.7-9.4,2.6-15.1,2.6s-13.1-1.4-18.8-4.4c-5.7-2.9-10.2-7.4-13.4-13.6-2.2-4.3-3.7-9.5-4.3-15.6h111.4v-9.3ZM214.5,146.5c5.3-3,11.2-4.5,17.8-4.5s13.1,1.6,18.3,4.8c5.2,3.2,9.3,7.9,12.3,14.1,1.6,3.4,2.8,7.2,3.6,11.4h-68.1c.8-4.4,1.9-8.3,3.5-11.5,3.1-6.5,7.3-11.3,12.6-14.3Z"></path>
    <path id="Icon" fill="#12354C" d="M157.4,54.4c0,12.5-10.2,22.7-22.7,22.7s-22.7-10.2-22.7-22.7,10.2-22.7,22.7-22.7,22.7,10.2,22.7,22.7ZM79.9,62.7c-12.5,0-22.7,10.2-22.7,22.7s10.2,22.7,22.7,22.7,22.7-10.2,22.7-22.7-10.2-22.7-22.7-22.7ZM75.9,123.6c-12.5,0-22.7,10.2-22.7,22.7s10.2,22.7,22.7,22.7,22.7-10.2,22.7-22.7-10.2-22.7-22.7-22.7ZM131,95.4c-12.5,0-22.7,10.2-22.7,22.7s10.2,22.7,22.7,22.7,22.7-10.2,22.7-22.7-10.2-22.7-22.7-22.7ZM173.6,79.8c-6.5,0-11.7,5.2-11.7,11.7s5.2,11.7,11.7,11.7,11.7-5.2,11.7-11.7-5.2-11.7-11.7-11.7ZM123.2,154.7c-6.5,0-11.7,5.2-11.7,11.7s5.2,11.7,11.7,11.7,11.7-5.2,11.7-11.7-5.2-11.7-11.7-11.7Z"></path>
  </g>
</svg>