<svg width="24" height="24" viewBox="0 0 24 24" fill="none" xmlns="http://www.w3.org/2000/svg">
<path d="M12.001 23C9.64303 23 7.67203 21.187 7.23603 18.79H6.89203C5.77503 18.79 4.71203 18.277 3.97503 17.384C3.15803 16.394 2.83203 15.084 3.08203 13.792L4.48603 7.572C5.21903 3.777 8.38203 1 12.001 1C15.62 1 18.782 3.777 19.522 7.603L20.914 13.762C21.17 15.086 20.845 16.396 20.027 17.386C19.29 18.279 18.226 18.791 17.11 18.791H16.766C16.33 21.187 14.36 23 12.001 23ZM9.28803 18.791C9.66303 20.073 10.737 21.001 12.001 21.001C13.265 21.001 14.339 20.073 14.714 18.791H9.28803ZM12.001 3C9.33903 3 7.00103 5.095 6.44403 7.982L5.04003 14.202C4.91003 14.876 5.08203 15.583 5.51803 16.111C5.87903 16.549 6.36803 16.79 6.89303 16.79H17.11C17.635 16.79 18.123 16.549 18.484 16.111C18.921 15.583 19.092 14.876 18.957 14.171L17.565 8.012C17.001 5.095 14.664 2.999 12.002 2.999L12.001 3Z" fill="#024059"></path>
</svg>