<svg width="24" height="24" viewBox="0 0 24 24" fill="none" xmlns="http://www.w3.org/2000/svg">
<path fill-rule="evenodd" clip-rule="evenodd" d="M6.45563 4.63636C6.50389 2.61972 8.15356 1 10.1818 1C12.2101 1 13.8597 2.61972 13.908 4.63636H18.3636C18.9159 4.63636 19.3636 5.08408 19.3636 5.63636V10.092C21.3803 10.1403 23 11.7899 23 13.8182C23 15.8464 21.3803 17.4961 19.3636 17.5444V22C19.3636 22.5523 18.9159 23 18.3636 23H12.9091C12.3568 23 11.9091 22.5523 11.9091 22C11.9091 21.0459 11.1359 20.2727 10.1818 20.2727C9.22774 20.2727 8.45455 21.0459 8.45455 22C8.45455 22.5523 8.00683 23 7.45455 23H2C1.44772 23 1 22.5523 1 22V16.5455C1 15.9932 1.44772 15.5455 2 15.5455C2.95408 15.5455 3.72727 14.7723 3.72727 13.8182C3.72727 12.8641 2.95408 12.0909 2 12.0909C1.44772 12.0909 1 11.6432 1 11.0909V5.63636C1 5.08408 1.44772 4.63636 2 4.63636H6.45563ZM10.1818 3C9.22774 3 8.45455 3.77319 8.45455 4.72727C8.45455 4.91009 8.49152 5.09805 8.5637 5.30041C8.67292 5.60664 8.62646 5.94685 8.43912 6.21258C8.25178 6.4783 7.94694 6.63636 7.62182 6.63636H3V10.2266C4.57296 10.6635 5.72727 12.1059 5.72727 13.8182C5.72727 15.5304 4.57296 16.9729 3 17.4098V21H6.59019C7.02715 19.427 8.46958 18.2727 10.1818 18.2727C11.8941 18.2727 13.3365 19.427 13.7734 21H17.3636V16.3782C17.3636 16.0531 17.5217 15.7482 17.7874 15.5609C18.0531 15.3735 18.3934 15.3271 18.6996 15.4363C18.902 15.5085 19.0899 15.5455 19.2727 15.5455C20.2268 15.5455 21 14.7723 21 13.8182C21 12.8641 20.2268 12.0909 19.2727 12.0909C19.0899 12.0909 18.902 12.1279 18.6996 12.2001C18.3934 12.3093 18.0531 12.2628 17.7874 12.0755C17.5217 11.8881 17.3636 11.5833 17.3636 11.2582V6.63636H12.7418C12.4167 6.63636 12.1119 6.4783 11.9245 6.21258C11.7372 5.94685 11.6907 5.60664 11.7999 5.30041C11.8721 5.09805 11.9091 4.91009 11.9091 4.72727C11.9091 3.77319 11.1359 3 10.1818 3Z" fill="#024059"></path>
</svg>