<svg width="24" height="24" viewBox="0 0 24 24" fill="none" xmlns="http://www.w3.org/2000/svg">
<path fill-rule="evenodd" clip-rule="evenodd" d="M6.17607 1C4.50889 1 3.05869 2.29018 3.05869 4V7H3C2.44772 7 2 7.44772 2 8C2 8.55228 2.44772 9 3 9H3.05869V11H3C2.44772 11 2 11.4477 2 12C2 12.5523 2.44772 13 3 13H3.05869V15H3C2.44772 15 2 15.4477 2 16C2 16.5523 2.44772 17 3 17H3.05869V20C3.05869 21.7099 4.5089 23 6.17607 23H18.8804C20.5476 23 21.9978 21.7099 21.9978 20V4C21.9978 2.29019 20.5476 1 18.8804 1H6.17607ZM5.11738 9H5.05869V11H5.11738C5.66967 11 6.11738 11.4477 6.11738 12C6.11738 12.5523 5.66967 13 5.11738 13H5.05869V15H5.11738C5.66967 15 6.11738 15.4477 6.11738 16C6.11738 16.5523 5.66967 17 5.11738 17H5.05869V20C5.05869 20.4993 5.50445 21 6.17607 21H18.8804C19.552 21 19.9978 20.4993 19.9978 20V4C19.9978 3.50067 19.552 3 18.8804 3H6.17607C5.50446 3 5.05869 3.50068 5.05869 4V7H5.11738C5.66967 7 6.11738 7.44772 6.11738 8C6.11738 8.55228 5.66967 9 5.11738 9ZM13.5284 9.30066V8.30066H11.5284V9.30066V11.0009H9.35228H8.35228V13.0009H9.35228H11.5284V14.7012V15.7012H13.5284V14.7012V13.0009H15.7044H16.7044V11.0009H15.7044H13.5284V9.30066Z" fill="#024059"></path>
</svg>