<svg width="24" height="24" viewBox="0 0 24 24" fill="none" xmlns="http://www.w3.org/2000/svg">
<path fill-rule="evenodd" clip-rule="evenodd" d="M22.669 6.25678C23.0795 6.62623 23.1128 7.25852 22.7433 7.66903L13.7433 17.669C13.5598 17.8729 13.3005 17.9925 13.0263 17.9997C12.752 18.0069 12.4869 17.9012 12.2929 17.7072L7 12.4143L2.70711 16.7072C2.31658 17.0977 1.68342 17.0977 1.29289 16.7072C0.902369 16.3167 0.902369 15.6835 1.29289 15.293L6.29289 10.293C6.68342 9.90244 7.31658 9.90244 7.70711 10.293L12.9618 15.5477L21.2567 6.3311C21.6262 5.92059 22.2585 5.88732 22.669 6.25678Z" fill="#024059"></path>
<path fill-rule="evenodd" clip-rule="evenodd" d="M14 7.00006C14 6.44778 14.4477 6.00006 15 6.00006H22C22.5523 6.00006 23 6.44778 23 7.00006V14.0001C23 14.5523 22.5523 15.0001 22 15.0001C21.4477 15.0001 21 14.5523 21 14.0001V8.00006H15C14.4477 8.00006 14 7.55235 14 7.00006Z" fill="#024059"></path>
</svg>