<svg width="24" height="24" viewBox="0 0 24 24" fill="none" xmlns="http://www.w3.org/2000/svg">
<path fill-rule="evenodd" clip-rule="evenodd" d="M14.626 9.37401C14.821 9.56901 15.077 9.66701 15.333 9.66701C15.589 9.66701 15.845 9.56901 16.04 9.37401L22.707 2.70701C23.098 2.31601 23.098 1.68401 22.707 1.29301C22.316 0.902006 21.684 0.902006 21.293 1.29301L14.626 7.96001C14.235 8.35101 14.235 8.98301 14.626 9.37401ZM1.60701 16.205C1.74701 16.623 2.13601 16.887 2.55401 16.887L2.55301 16.888C2.65701 16.888 2.76301 16.872 2.86701 16.838C3.39001 16.666 3.67501 16.1 3.50501 15.577C3.49601 15.55 2.62701 12.788 4.37301 11.041L11.04 4.37401C12.779 2.63501 15.522 3.48801 15.575 3.50501C16.104 3.67901 16.663 3.39401 16.837 2.87201C17.012 2.34801 16.728 1.78201 16.205 1.60701C16.043 1.55401 12.253 0.332011 9.62601 2.96001L2.96001 9.62601C0.331011 12.255 1.55401 16.045 1.60701 16.205ZM7.79501 22.393C7.87301 22.419 8.814 22.724 10.063 22.724C11.375 22.724 13.027 22.388 14.374 21.04L21.04 14.373C23.67 11.744 22.447 7.95401 22.393 7.79401C22.22 7.27201 21.654 6.98901 21.133 7.16301C20.609 7.33501 20.324 7.89901 20.494 8.42301C20.504 8.45101 21.373 11.212 19.626 12.959L12.96 19.626C11.213 21.372 8.451 20.504 8.42801 20.496C7.90301 20.32 7.33701 20.605 7.16301 21.128C6.98801 21.653 7.27101 22.219 7.79501 22.393ZM2.00001 23C1.74401 23 1.48801 22.902 1.29301 22.707C0.902006 22.316 0.902006 21.684 1.29301 21.293L7.96001 14.626C8.35101 14.235 8.98301 14.235 9.37401 14.626C9.76501 15.017 9.76501 15.649 9.37401 16.04L2.70701 22.707C2.51201 22.902 2.25601 23 2.00001 23Z" fill="#024059"></path>
</svg>