<svg width="24" height="24" viewBox="0 0 24 24" fill="none" xmlns="http://www.w3.org/2000/svg">
<path fill-rule="evenodd" clip-rule="evenodd" d="M6 3C5.44771 3 5 3.44771 5 4V20C5 20.5523 5.44771 21 6 21H11.8889C15.8162 21 19 17.8163 19 13.8889V4C19 3.44771 18.5523 3 18 3H6ZM3 4C3 2.34315 4.34315 1 6 1H18C19.6569 1 21 2.34315 21 4V13.8889C21 18.9209 16.9208 23 11.8889 23H6C4.34315 23 3 21.6569 3 20V4ZM8 8C8 7.44772 8.44772 7 9 7H15C15.5523 7 16 7.44772 16 8C16 8.55228 15.5523 9 15 9H9C8.44772 9 8 8.55228 8 8ZM8 12C8 11.4477 8.44772 11 9 11H13C13.5523 11 14 11.4477 14 12C14 12.5523 13.5523 13 13 13H9C8.44772 13 8 12.5523 8 12ZM8 16C8 15.4477 8.44772 15 9 15H10C10.5523 15 11 15.4477 11 16C11 16.5523 10.5523 17 10 17H9C8.44772 17 8 16.5523 8 16Z" fill="#024059"></path>
</svg>