<svg width="24" height="24" viewBox="0 0 24 24" fill="none" xmlns="http://www.w3.org/2000/svg">
<path fill-rule="evenodd" clip-rule="evenodd" d="M11.091 1C5.69046 1 1 4.70097 1 9.61904C1 11.472 1.68985 13.1657 2.81821 14.5451V19.1429C2.81821 19.4928 3.0011 19.8172 3.30046 19.9984C3.59981 20.1795 3.97208 20.1911 4.28205 20.0287L8.33335 17.9071C9.2086 18.1199 10.1327 18.2381 11.091 18.2381C16.4915 18.2381 21.182 14.5371 21.182 9.61904C21.182 4.70097 16.4915 1 11.091 1ZM2.99989 9.61904C2.99989 6.12183 6.44955 2.99992 11.091 2.99992C15.7324 2.99992 19.1821 6.12183 19.1821 9.61904C19.1821 13.1162 15.7324 16.2382 11.091 16.2382C10.1786 16.2382 9.30279 16.1088 8.48128 15.8789C8.23594 15.8103 7.97365 15.8379 7.74796 15.9561L4.8181 17.4904V14.1762C4.8181 13.9304 4.72753 13.6931 4.5637 13.5098C3.56915 12.3971 2.99989 11.0535 2.99989 9.61904ZM22.8754 13.2162C22.7581 12.6765 22.2255 12.3341 21.6859 12.4514C21.1462 12.5687 20.8038 13.1013 20.9211 13.641C20.9732 13.8806 21.0001 14.1275 21.0001 14.381C21.0001 15.492 20.4735 16.552 19.5161 17.4063C19.3035 17.596 19.1819 17.8674 19.1819 18.1524V20.3474L16.7512 19.0742C16.5566 18.9723 16.3339 18.9373 16.1174 18.9746C15.6671 19.0522 15.203 19.0953 14.7272 19.0953C13.8642 19.0953 13.0467 18.9625 12.3038 18.7255C11.7777 18.5576 11.2151 18.8481 11.0473 19.3742C10.8794 19.9003 11.1699 20.4629 11.696 20.6308C12.6368 20.9309 13.6593 21.0952 14.7272 21.0952C15.2025 21.0952 15.6657 21.0609 16.115 20.9987L19.7179 22.8858C20.0278 23.0482 20.4001 23.0367 20.6995 22.8556C20.9989 22.6744 21.1818 22.35 21.1818 22V18.5811C22.291 17.4591 23 16.0072 23 14.381C23 13.9849 22.9578 13.5956 22.8754 13.2162Z" fill="#024059"></path>
</svg>