<svg width="24" height="24" viewBox="0 0 24 24" fill="none" xmlns="http://www.w3.org/2000/svg">
<path fill-rule="evenodd" clip-rule="evenodd" d="M1 3C1 2.44772 1.44772 2 2 2H9.27273C9.58579 2 9.88078 2.14661 10.0698 2.39614L12.497 5.6H22C22.5523 5.6 23 6.04772 23 6.6V19.2C23 19.9459 22.7006 20.6591 22.171 21.1834C21.6417 21.7074 20.926 22 20.1818 22H3.81818C3.07398 22 2.35825 21.7074 1.82899 21.1834C1.29938 20.6591 1 19.9459 1 19.2V3ZM3 4V19.2C3 19.4089 3.08373 19.6113 3.23608 19.7621C3.38876 19.9133 3.59796 20 3.81818 20H20.1818C20.402 20 20.6112 19.9133 20.7639 19.7621C20.9163 19.6113 21 19.4089 21 19.2V7.6H12C11.6869 7.6 11.392 7.45339 11.2029 7.20386L8.77574 4H3Z" fill="#024059"></path>
</svg>