<svg width="24" height="24" viewBox="0 0 24 24" fill="none" xmlns="http://www.w3.org/2000/svg">
<path fill-rule="evenodd" clip-rule="evenodd" d="M7.66667 4.22222C7.66667 2.44263 9.10931 1 10.8889 1H13.1111C14.8907 1 16.3333 2.44265 16.3333 4.22222V7.66667H19.7778C21.5574 7.66667 23 9.10932 23 10.8889V13.1111C23 14.8907 21.5574 16.3333 19.7778 16.3333H16.3333V19.7778C16.3333 21.5574 14.8907 23 13.1111 23H10.8889C9.10932 23 7.66667 21.5574 7.66667 19.7778V16.3333H4.22222C2.44265 16.3333 1 14.8907 1 13.1111V10.8889C1 9.10931 2.44263 7.66667 4.22222 7.66667H7.66667V4.22222ZM10.8889 3C10.2139 3 9.66667 3.54721 9.66667 4.22222V8.66667C9.66667 9.21895 9.21895 9.66667 8.66667 9.66667H4.22222C3.54721 9.66667 3 10.2139 3 10.8889V13.1111C3 13.7861 3.54719 14.3333 4.22222 14.3333H8.66667C9.21895 14.3333 9.66667 14.781 9.66667 15.3333V19.7778C9.66667 20.4528 10.2139 21 10.8889 21H13.1111C13.7861 21 14.3333 20.4528 14.3333 19.7778V15.3333C14.3333 14.781 14.781 14.3333 15.3333 14.3333H19.7778C20.4528 14.3333 21 13.7861 21 13.1111V10.8889C21 10.2139 20.4528 9.66667 19.7778 9.66667H15.3333C14.781 9.66667 14.3333 9.21895 14.3333 8.66667V4.22222C14.3333 3.54719 13.7861 3 13.1111 3H10.8889Z" fill="#024059"></path>
</svg>