<svg width="24" height="24" viewBox="0 0 24 24" fill="none" xmlns="http://www.w3.org/2000/svg">
<path fill-rule="evenodd" clip-rule="evenodd" d="M5.61011 4.64658C5.75711 4.25748 6.12962 4 6.54557 4H7.45466C7.87061 4 8.24312 4.25748 8.39012 4.64658L11.031 11.6367C11.0336 11.6433 11.0361 11.65 11.0386 11.6567L12.0265 14.2716C12.2217 14.7882 11.9611 15.3653 11.4444 15.5605C10.9278 15.7557 10.3507 15.4951 10.1556 14.9784L9.4081 13H4.59213L3.84467 14.9784C3.64948 15.4951 3.07243 15.7557 2.55578 15.5605C2.03914 15.3653 1.77855 14.7882 1.97374 14.2716L2.95637 11.6707C2.962 11.6545 2.96803 11.6386 2.97445 11.6228L5.61011 4.64658ZM5.34773 11H8.6525L7.00012 6.62635L5.34773 11ZM14.7273 4.875C14.175 4.875 13.7273 5.32272 13.7273 5.875C13.7273 6.42728 14.175 6.875 14.7273 6.875H22C22.5523 6.875 23 6.42728 23 5.875C23 5.32272 22.5523 4.875 22 4.875H14.7273ZM14.7273 9.25C14.175 9.25 13.7273 9.69772 13.7273 10.25C13.7273 10.8023 14.175 11.25 14.7273 11.25H22C22.5523 11.25 23 10.8023 23 10.25C23 9.69772 22.5523 9.25 22 9.25H14.7273ZM13.7273 14.625C13.7273 14.0727 14.175 13.625 14.7273 13.625H22C22.5523 13.625 23 14.0727 23 14.625C23 15.1773 22.5523 15.625 22 15.625H14.7273C14.175 15.625 13.7273 15.1773 13.7273 14.625ZM2 18C1.44772 18 1 18.4477 1 19C1 19.5523 1.44772 20 2 20H22C22.5523 20 23 19.5523 23 19C23 18.4477 22.5523 18 22 18H2Z" fill="#024059"></path>
</svg>