<svg width="24" height="24" viewBox="0 0 24 24" fill="none" xmlns="http://www.w3.org/2000/svg">
<path fill-rule="evenodd" clip-rule="evenodd" d="M9.5 2C8.2699 2 7.18777 2.65268 6.6197 3.68042C4.00879 3.87018 2 6.00115 2 8.66667C2 9.65446 2.29031 10.652 2.84226 11.4782C2.33557 12.0412 2 12.7961 2 13.6667C2 14.5492 2.35111 15.3745 2.95467 15.9642C2.8728 16.3181 2.83333 16.6781 2.83333 17C2.83333 19.7936 5.03976 22 7.83333 22C9.58724 22 11.1097 21.1303 12 19.7915C12.8903 21.1303 14.4128 22 16.1667 22C18.9602 22 21.1667 19.7936 21.1667 17C21.1667 16.6284 21.1277 16.2877 21.0496 15.9601C21.6505 15.3707 22 14.5471 22 13.6667C22 12.7961 21.6644 12.0412 21.1577 11.4782C21.7097 10.652 22 9.65446 22 8.66667C22 6.00115 19.9912 3.87018 17.3803 3.68042C16.8122 2.65268 15.7301 2 14.5 2C13.4918 2 12.605 2.42021 12 3.10009C11.395 2.42021 10.5082 2 9.5 2ZM14.5 3.66667C13.5436 3.66667 12.8333 4.3769 12.8333 5.33333C12.8333 6.28976 13.5436 7 14.5 7C14.9602 7 15.3333 7.3731 15.3333 7.83333C15.3333 8.29357 14.9602 8.66667 14.5 8.66667C13.4918 8.66667 12.605 8.24645 12 7.56658C11.395 8.24645 10.5082 8.66667 9.5 8.66667C9.03976 8.66667 8.66667 8.29357 8.66667 7.83333C8.66667 7.3731 9.03976 7 9.5 7C10.4564 7 11.1667 6.28976 11.1667 5.33333C11.1667 4.3769 10.4564 3.66667 9.5 3.66667C8.77282 3.66667 8.17634 4.10621 7.95724 4.76352C7.84381 5.10381 7.52536 5.33333 7.16667 5.33333H7.16618H7.16569H7.16521H7.16473H7.16425H7.16377H7.16329H7.16282H7.16235H7.16188H7.16141H7.16094H7.16048H7.16001H7.15955H7.15909H7.15864H7.15818H7.15772H7.15727H7.15682H7.15637H7.15593H7.15548H7.15504H7.15459H7.15415H7.15371H7.15328H7.15284H7.15241H7.15198H7.15155H7.15112H7.15069H7.15027H7.14984H7.14942H7.149H7.14858H7.14816H7.14775H7.14733H7.14692H7.14651H7.1461H7.14569H7.14529H7.14488H7.14448H7.14408H7.14368H7.14328H7.14288H7.14249H7.1421H7.1417H7.14131H7.14092H7.14053H7.14015H7.13976H7.13938H7.139H7.13862H7.13824H7.13786H7.13748H7.13711H7.13673H7.13636H7.13599H7.13562H7.13525H7.13489H7.13452H7.13416H7.13379H7.13343H7.13307H7.13271H7.13236H7.132H7.13164H7.13129H7.13094H7.13059H7.13024H7.12989H7.12954H7.12919H7.12885H7.12851H7.12816H7.12782H7.12748H7.12714H7.1268H7.12647H7.12613H7.1258H7.12547H7.12513H7.1248H7.12447H7.12415H7.12382H7.12349H7.12317H7.12284H7.12252H7.1222H7.12188H7.12156H7.12124H7.12092H7.1206H7.12029H7.11997H7.11966H7.11935H7.11904H7.11873H7.11842H7.11811H7.1178H7.11749H7.11719H7.11688H7.11658H7.11628H7.11597H7.11567H7.11537H7.11507H7.11478H7.11448H7.11418H7.11389H7.11359H7.1133H7.113H7.11271H7.11242H7.11213H7.11184H7.11155H7.11126H7.11098H7.11069H7.11041H7.11012H7.10984H7.10955H7.10927H7.10899H7.10871H7.10843H7.10815H7.10787H7.10759H7.10731H7.10704H7.10676H7.10649H7.10621H7.10594H7.10566H7.10539H7.10512H7.10485H7.10458H7.10431H7.10404H7.10377H7.1035H7.10323H7.10297H7.1027H7.10243H7.10217H7.1019H7.10164H7.10137H7.10111H7.10085H7.10059H7.10033H7.10006H7.0998H7.09954H7.09928H7.09902H7.09877H7.09851H7.09825H7.09799H7.09774H7.09748H7.09722H7.09697H7.09671H7.09646H7.0962H7.09595H7.0957H7.09544H7.09519H7.09494H7.09468H7.09443H7.09418H7.09393H7.09368H7.09343H7.09318H7.09293H7.09268H7.09243H7.09218H7.09193H7.09168H7.09143H7.09119H7.09094H7.09069H7.09044H7.0902H7.08995H7.0897H7.08946H7.08921H7.08896H7.08872H7.08847H7.08823H7.08798H7.08773H7.08749H7.08724H7.087H7.08675H7.08651H7.08626H7.08602H7.08578H7.08553H7.08529H7.08504H7.0848H7.08455H7.08431H7.08407H7.08382H7.08358H7.08333H7.08309H7.08284H7.0826H7.08236H7.08211H7.08187H7.08162H7.08138H7.08113H7.08089H7.08065H7.0804H7.08016H7.07991H7.07967H7.07942H7.07918H7.07893H7.07869H7.07844H7.07819H7.07795H7.0777H7.07746H7.07721H7.07696H7.07672H7.07647H7.07622H7.07598H7.07573H7.07548H7.07523H7.07498H7.07473H7.07449H7.07424H7.07399H7.07374H7.07349H7.07324H7.07299H7.07274H7.07248H7.07223H7.07198H7.07173H7.07148H7.07122H7.07097H7.07072H7.07046H7.07021H7.06995H7.0697H7.06944H7.06919H7.06893H7.06867H7.06842H7.06816H7.0679H7.06764H7.06738H7.06712H7.06686H7.0666H7.06634H7.06608H7.06582H7.06555H7.06529H7.06503H7.06476H7.0645H7.06423H7.06397H7.0637H7.06343H7.06317H7.0629H7.06263H7.06236H7.06209H7.06182H7.06155H7.06128H7.061H7.06073H7.06046H7.06018H7.05991H7.05963H7.05935H7.05907H7.0588H7.05852H7.05824H7.05796H7.05768H7.0574H7.05711H7.05683H7.05655H7.05626H7.05597H7.05569H7.0554H7.05511H7.05482H7.05454H7.05424H7.05395H7.05366H7.05337H7.05307H7.05278H7.05248H7.05219H7.05189H7.05159H7.05129H7.05099H7.05069H7.05039H7.05009H7.04978H7.04948H7.04917H7.04887H7.04856H7.04825H7.04794H7.04763H7.04732H7.04701H7.04669H7.04638H7.04606H7.04575H7.04543H7.04511H7.04479H7.04447H7.04415H7.04382H7.0435H7.04317H7.04285H7.04252H7.04219H7.04186H7.04153H7.0412H7.04087H7.04053H7.0402H7.03986H7.03952H7.03918H7.03884H7.0385H7.03816H7.03782H7.03747H7.03713H7.03678H7.03643H7.03608H7.03573H7.03538H7.03502H7.03467H7.03431H7.03395H7.03359H7.03323H7.03287H7.03251H7.03215H7.03178H7.03141H7.03105H7.03068H7.0303H7.02993H7.02956H7.02918H7.02881H7.02843H7.02805H7.02767H7.02729H7.0269H7.02652H7.02613H7.02574H7.02535H7.02496H7.02457H7.02418H7.02378H7.02338H7.02299H7.02259H7.02218H7.02178H7.02138H7.02097H7.02056H7.02015H7.01974H7.01933H7.01892H7.0185H7.01808H7.01767H7.01725H7.01682H7.0164H7.01597H7.01555H7.01512H7.01469H7.01426H7.01382H7.01339H7.01295H7.01251H7.01207H7.01163H7.01119H7.01074H7.01029H7.00984H7.00939H7.00894H7.00849H7.00803H7.00757H7.00711H7.00665H7.00619H7.00572H7.00526H7.00479H7.00432H7.00385H7.00337H7.0029H7.00242H7.00194H7.00146H7.00097H7.00049H7C5.1269 5.33333 3.66667 6.79357 3.66667 8.66667C3.66667 9.54682 4.00754 10.4106 4.58627 10.9911L4.58928 10.9941C5.03748 11.4423 5.63483 11.779 6.2935 11.9231C6.47155 11.2993 6.82746 10.7535 7.29985 10.3599C7.65341 10.0652 8.17888 10.113 8.47352 10.4666C8.76815 10.8201 8.72038 11.3456 8.36682 11.6402C8.05912 11.8966 7.83478 12.3262 7.83334 12.8285L7.83335 12.8333L7.83334 12.8382C7.83529 13.5632 8.27434 14.1575 8.93019 14.3761C9.36681 14.5217 9.60278 14.9936 9.45724 15.4302C9.3117 15.8669 8.83976 16.1028 8.40314 15.9573C7.30973 15.5928 6.51401 14.7049 6.25624 13.6104C5.42259 13.4839 4.65041 13.1507 4.00634 12.6814C3.7965 12.9501 3.66667 13.2883 3.66667 13.6667C3.66667 14.2213 3.94255 14.7001 4.35833 14.96C4.70032 15.1737 4.84018 15.6017 4.6904 15.9762C4.56736 16.2838 4.5 16.6773 4.5 17C4.5 18.8731 5.96024 20.3333 7.83333 20.3333C9.70643 20.3333 11.1667 18.8731 11.1667 17V10.3333C11.1667 9.8731 11.5398 9.5 12 9.5C12.4602 9.5 12.8333 9.8731 12.8333 10.3333V17C12.8333 18.8731 14.2936 20.3333 16.1667 20.3333C18.0398 20.3333 19.5 18.8731 19.5 17C19.5 16.6037 19.436 16.2923 19.3096 15.9762C19.1598 15.6017 19.2997 15.1737 19.6417 14.96C20.0575 14.7001 20.3333 14.2213 20.3333 13.6667C20.3333 13.2883 20.2035 12.9501 19.9937 12.6814C19.3496 13.1507 18.5774 13.4839 17.7438 13.6104C17.486 14.7049 16.6903 15.5928 15.5969 15.9573C15.1602 16.1028 14.6883 15.8669 14.5428 15.4302C14.3972 14.9936 14.6332 14.5217 15.0698 14.3761C15.7271 14.157 16.1667 13.5606 16.1667 12.8334C16.1667 12.329 15.9419 11.8975 15.6332 11.6402C15.2796 11.3456 15.2318 10.8201 15.5265 10.4666C15.8211 10.113 16.3466 10.0652 16.7002 10.3599C17.1725 10.7535 17.5284 11.2993 17.7065 11.9231C18.3646 11.7792 18.9615 11.4429 19.4096 10.9952L19.4107 10.9941C19.9913 10.4135 20.3333 9.54834 20.3333 8.66667C20.3333 6.79357 18.8731 5.33333 17 5.33333H16.9995H16.999H16.9985H16.9981H16.9976H16.9971H16.9966H16.9962H16.9957H16.9952H16.9947H16.9943H16.9938H16.9933H16.9929H16.9924H16.992H16.9915H16.9911H16.9906H16.9902H16.9897H16.9893H16.9888H16.9884H16.9879H16.9875H16.987H16.9866H16.9862H16.9857H16.9853H16.9849H16.9845H16.984H16.9836H16.9832H16.9828H16.9823H16.9819H16.9815H16.9811H16.9807H16.9803H16.9798H16.9794H16.979H16.9786H16.9782H16.9778H16.9774H16.977H16.9766H16.9762H16.9758H16.9754H16.975H16.9746H16.9743H16.9739H16.9735H16.9731H16.9727H16.9723H16.9719H16.9716H16.9712H16.9708H16.9704H16.9701H16.9697H16.9693H16.969H16.9686H16.9682H16.9679H16.9675H16.9671H16.9668H16.9664H16.966H16.9657H16.9653H16.965H16.9646H16.9643H16.9639H16.9636H16.9632H16.9629H16.9625H16.9622H16.9618H16.9615H16.9612H16.9608H16.9605H16.9601H16.9598H16.9595H16.9591H16.9588H16.9585H16.9581H16.9578H16.9575H16.9572H16.9568H16.9565H16.9562H16.9559H16.9555H16.9552H16.9549H16.9546H16.9543H16.9539H16.9536H16.9533H16.953H16.9527H16.9524H16.9521H16.9517H16.9514H16.9511H16.9508H16.9505H16.9502H16.9499H16.9496H16.9493H16.949H16.9487H16.9484H16.9481H16.9478H16.9475H16.9472H16.9469H16.9466H16.9463H16.946H16.9458H16.9455H16.9452H16.9449H16.9446H16.9443H16.944H16.9437H16.9435H16.9432H16.9429H16.9426H16.9423H16.942H16.9418H16.9415H16.9412H16.9409H16.9406H16.9404H16.9401H16.9398H16.9395H16.9393H16.939H16.9387H16.9385H16.9382H16.9379H16.9376H16.9374H16.9371H16.9368H16.9366H16.9363H16.936H16.9358H16.9355H16.9352H16.935H16.9347H16.9344H16.9342H16.9339H16.9337H16.9334H16.9331H16.9329H16.9326H16.9324H16.9321H16.9318H16.9316H16.9313H16.9311H16.9308H16.9306H16.9303H16.93H16.9298H16.9295H16.9293H16.929H16.9288H16.9285H16.9283H16.928H16.9278H16.9275H16.9273H16.927H16.9268H16.9265H16.9263H16.926H16.9258H16.9255H16.9253H16.925H16.9248H16.9245H16.9243H16.924H16.9238H16.9235H16.9233H16.923H16.9228H16.9225H16.9223H16.9221H16.9218H16.9216H16.9213H16.9211H16.9208H16.9206H16.9203H16.9201H16.9198H16.9196H16.9194H16.9191H16.9189H16.9186H16.9184H16.9181H16.9179H16.9176H16.9174H16.9172H16.9169H16.9167H16.9164H16.9162H16.9159H16.9157H16.9154H16.9152H16.915H16.9147H16.9145H16.9142H16.914H16.9137H16.9135H16.9132H16.913H16.9128H16.9125H16.9123H16.912H16.9118H16.9115H16.9113H16.911H16.9108H16.9105H16.9103H16.91H16.9098H16.9096H16.9093H16.9091H16.9088H16.9086H16.9083H16.9081H16.9078H16.9076H16.9073H16.9071H16.9068H16.9066H16.9063H16.9061H16.9058H16.9056H16.9053H16.9051H16.9048H16.9046H16.9043H16.904H16.9038H16.9035H16.9033H16.903H16.9028H16.9025H16.9023H16.902H16.9017H16.9015H16.9012H16.901H16.9007H16.9005H16.9002H16.8999H16.8997H16.8994H16.8991H16.8989H16.8986H16.8984H16.8981H16.8978H16.8976H16.8973H16.897H16.8968H16.8965H16.8962H16.896H16.8957H16.8954H16.8952H16.8949H16.8946H16.8943H16.8941H16.8938H16.8935H16.8932H16.893H16.8927H16.8924H16.8921H16.8919H16.8916H16.8913H16.891H16.8907H16.8904H16.8902H16.8899H16.8896H16.8893H16.889H16.8887H16.8884H16.8882H16.8879H16.8876H16.8873H16.887H16.8867H16.8864H16.8861H16.8858H16.8855H16.8852H16.8849H16.8846H16.8843H16.884H16.8837H16.8834H16.8831H16.8828H16.8825H16.8822H16.8819H16.8816H16.8813H16.881H16.8807H16.8803H16.88H16.8797H16.8794H16.8791H16.8788H16.8784H16.8781H16.8778H16.8775H16.8772H16.8768H16.8765H16.8762H16.8759H16.8755H16.8752H16.8749H16.8745H16.8742H16.8739H16.8735H16.8732H16.8729H16.8725H16.8722H16.8718H16.8715H16.8711H16.8708H16.8705H16.8701H16.8698H16.8694H16.8691H16.8687H16.8684H16.868H16.8676H16.8673H16.8669H16.8666H16.8662H16.8658H16.8655H16.8651H16.8647H16.8644H16.864H16.8636H16.8633H16.8629H16.8625H16.8621H16.8618H16.8614H16.861H16.8606H16.8602H16.8599H16.8595H16.8591H16.8587H16.8583H16.8579H16.8575H16.8571H16.8567H16.8563H16.8559H16.8555H16.8551H16.8547H16.8543H16.8539H16.8535H16.8531H16.8527H16.8522H16.8518H16.8514H16.851H16.8506H16.8502H16.8497H16.8493H16.8489H16.8485H16.848H16.8476H16.8472H16.8467H16.8463H16.8458H16.8454H16.845H16.8445H16.8441H16.8436H16.8432H16.8427H16.8423H16.8418H16.8414H16.8409H16.8404H16.84H16.8395H16.8391H16.8386H16.8381H16.8377H16.8372H16.8367H16.8362H16.8358H16.8353H16.8348H16.8343H16.8338H16.8333C16.4746 5.33333 16.1562 5.10381 16.0428 4.76352C15.8237 4.10621 15.2272 3.66667 14.5 3.66667Z" fill="#024059"></path>
</svg>