<svg width="24" height="24" viewBox="0 0 24 24" fill="none" xmlns="http://www.w3.org/2000/svg">
<path fill-rule="evenodd" clip-rule="evenodd" d="M6.54547 1C5.99319 1 5.54547 1.44772 5.54547 2V3.81818C5.54547 4.37047 5.99319 4.81818 6.54547 4.81818C7.09776 4.81818 7.54547 4.37047 7.54547 3.81818V3H16.4546V3.81818C16.4546 4.37047 16.9023 4.81818 17.4546 4.81818C18.0068 4.81818 18.4546 4.37047 18.4546 3.81818V2C18.4546 1.44772 18.0068 1 17.4546 1H6.54547ZM18.3636 10.1818C18.3636 10.6839 17.9566 11.0909 17.4545 11.0909C16.9524 11.0909 16.5454 10.6839 16.5454 10.1818C16.5454 9.67975 16.9524 9.27274 17.4545 9.27274C17.9566 9.27274 18.3636 9.67975 18.3636 10.1818ZM5.63636 7.54544C4.93716 7.54544 4.26659 7.8232 3.77217 8.31761C3.27776 8.81203 3 9.4826 3 10.1818V16.4545H5.54547V13.8182C5.54547 13.2659 5.99319 12.8182 6.54547 12.8182H17.4546C18.0068 12.8182 18.4546 13.2659 18.4546 13.8182V16.4545H21V10.1818C21 9.4826 20.7222 8.81203 20.2278 8.31761C19.7334 7.8232 19.0628 7.54544 18.3636 7.54544H5.63636ZM18.4546 18.4545H22C22.5523 18.4545 23 18.0068 23 17.4545V10.1818C23 8.95216 22.5115 7.77289 21.642 6.9034C20.7726 6.03391 19.5933 5.54544 18.3636 5.54544H5.63636C4.40672 5.54544 3.22745 6.03391 2.35796 6.9034C1.48847 7.77289 1 8.95216 1 10.1818V17.4545C1 18.0068 1.44772 18.4545 2 18.4545H5.54547V22C5.54547 22.5523 5.99319 23 6.54547 23H17.4546C18.0068 23 18.4546 22.5523 18.4546 22V18.4545ZM16.4546 17.4488C16.4546 17.4507 16.4545 17.4526 16.4545 17.4545C16.4545 17.4565 16.4546 17.4584 16.4546 17.4603V21H7.54547V14.8182H16.4546V17.4488Z" fill="#024059"></path>
</svg>