<svg width="24" height="24" viewBox="0 0 24 24" fill="none" xmlns="http://www.w3.org/2000/svg">
<path fill-rule="evenodd" clip-rule="evenodd" d="M17.5454 3.00001C17.5454 2.69011 17.4018 2.39773 17.1564 2.20838C16.9111 2.01903 16.5919 1.95412 16.2921 2.03264C13.9328 2.65055 12.3714 5.18612 12.9306 7.77772C13.2796 9.47209 14.6497 10.932 16.3249 11.3087C19.0016 11.9175 21.3128 10.1879 21.8818 7.80356C21.9528 7.50586 21.8836 7.19203 21.694 6.95181C21.5043 6.71159 21.2151 6.57144 20.9091 6.57144H19.2727C19.2522 6.57144 19.2317 6.57207 19.2112 6.57333C18.3216 6.62815 17.5454 5.93598 17.5454 4.80953V3.00001ZM14.8863 7.35943C14.6694 6.35931 14.9741 5.41243 15.5454 4.76234V4.80953C15.5454 6.90975 17.1158 8.68588 19.2985 8.57158C18.6939 9.2463 17.7707 9.58679 16.7675 9.35831L16.7645 9.35763C15.8968 9.16285 15.087 8.34032 14.8888 7.37104L14.8889 7.37103L14.8863 7.35943ZM8.38009 7.28812C8.22635 6.9123 7.8606 6.66676 7.45455 6.66676C7.04849 6.66676 6.68275 6.9123 6.529 7.28812L4.05592 13.3334H2C1.44772 13.3334 1 13.7811 1 14.3334C1 14.8857 1.44772 15.3334 2 15.3334H4.72727C5.13333 15.3334 5.49907 15.0879 5.65282 14.7121L7.45455 10.3078L11.9835 21.3787C12.1373 21.7545 12.503 22.0001 12.9091 22.0001C13.3151 22.0001 13.6809 21.7545 13.8346 21.3787L16.3077 15.3334H22C22.5523 15.3334 23 14.8857 23 14.3334C23 13.7811 22.5523 13.3334 22 13.3334H15.6364C15.2303 13.3334 14.8646 13.579 14.7108 13.9548L12.9091 18.359L8.38009 7.28812Z" fill="#024059"></path>
</svg>