<svg width="24" height="24" viewBox="0 0 24 24" fill="none" xmlns="http://www.w3.org/2000/svg">
<path fill-rule="evenodd" clip-rule="evenodd" d="M1 12C1 18.0751 5.92487 23 12 23C18.0751 23 23 18.0751 23 12C23 5.92481 18.0751 1 12 1C5.92486 1 1 5.92492 1 12ZM12 21C7.02943 21 3 16.9706 3 12C3 7.02948 7.02944 3 12 3C16.9705 3 21 7.02939 21 12C21 16.9706 16.9705 21 12 21ZM9.79289 15.2929C9.40237 15.6834 9.40237 16.3166 9.79289 16.7071C10.1834 17.0976 10.8166 17.0976 11.2071 16.7071L15.2071 12.7071C15.5976 12.3166 15.5976 11.6834 15.2071 11.2929L11.2071 7.29289C10.8166 6.90237 10.1834 6.90237 9.79289 7.29289C9.40237 7.68342 9.40237 8.31658 9.79289 8.70711L13.0858 12L9.79289 15.2929Z" fill="#024059"></path>
</svg>