<svg width="24" height="24" viewBox="0 0 24 24" fill="none" xmlns="http://www.w3.org/2000/svg">
<path fill-rule="evenodd" clip-rule="evenodd" d="M15.9419 1.73054C13.4308 0.766691 10.6536 0.756262 8.1354 1.70122C5.61718 2.64619 3.53244 4.48105 2.27536 6.85889C1.01827 9.23673 0.675957 11.9928 1.31314 14.6059C1.95032 17.219 3.52284 19.5081 5.73338 21.0404C7.94391 22.5727 10.6393 23.242 13.3098 22.9217C15.9804 22.6014 18.441 21.3138 20.2266 19.3023C22.0121 17.2908 22.9988 14.6947 23 12.0051C23.0003 11.4528 22.5527 11.0049 22.0005 11.0046C21.4482 11.0043 21.0003 11.4519 21 12.0041C20.999 14.2048 20.1917 16.3288 18.7308 17.9746C17.2699 19.6204 15.2567 20.6739 13.0717 20.9359C10.8867 21.198 8.68138 20.6504 6.87276 19.3967C5.06414 18.143 3.77754 16.2701 3.25621 14.1321C2.73488 11.9941 3.01495 9.73914 4.04348 7.79364C5.072 5.84813 6.77769 4.34688 8.83806 3.57373C10.8984 2.80058 13.1707 2.80911 15.2252 3.59771C16.4239 4.05784 17.5001 4.76494 18.39 5.66213L15.9693 4.98766C15.4373 4.83942 14.8859 5.15053 14.7376 5.68255C14.5894 6.21457 14.9005 6.76603 15.4325 6.91427L20.6017 8.3546C20.8281 8.41906 21.0775 8.40423 21.305 8.29586C21.3277 8.28504 21.3501 8.27333 21.3721 8.26075C21.5979 8.13174 21.7554 7.92648 21.8288 7.6946C21.8398 7.65993 21.8489 7.62467 21.8561 7.58898C21.8785 7.47698 21.882 7.36077 21.8648 7.24545L21.2049 1.99802C21.136 1.45005 20.6359 1.06169 20.088 1.1306C19.54 1.19951 19.1516 1.69959 19.2206 2.24756L19.4265 3.88539C18.4184 2.96272 17.2388 2.22837 15.9419 1.73054Z" fill="#024059"></path>
</svg>