<svg width="24" height="24" viewBox="0 0 24 24" fill="none" xmlns="http://www.w3.org/2000/svg">
<path fill-rule="evenodd" clip-rule="evenodd" d="M22.7071 1.29295C23.0976 1.68348 23.0976 2.31664 22.7071 2.70717L11.7071 13.7072C11.3166 14.0977 10.6834 14.0977 10.2929 13.7072C9.90237 13.3166 9.90237 12.6835 10.2929 12.293L21.2929 1.29295C21.6834 0.90243 22.3166 0.90243 22.7071 1.29295Z" fill="#024059"></path>
<path fill-rule="evenodd" clip-rule="evenodd" d="M13 2.00006C13 1.44778 13.4477 1.00006 14 1.00006H22C22.5523 1.00006 23 1.44778 23 2.00006V10.0001C23 10.5523 22.5523 11.0001 22 11.0001C21.4477 11.0001 21 10.5523 21 10.0001V3.00006H14C13.4477 3.00006 13 2.55235 13 2.00006Z" fill="#024059"></path>
<path fill-rule="evenodd" clip-rule="evenodd" d="M1.87868 3.87874C2.44129 3.31613 3.20435 3.00006 4 3.00006H9C9.55228 3.00006 10 3.44778 10 4.00006C10 4.55235 9.55228 5.00006 9 5.00006H4C3.73478 5.00006 3.48043 5.10542 3.29289 5.29295C3.10536 5.48049 3 5.73484 3 6.00006V20.0001C3 20.2653 3.10536 20.5196 3.29289 20.7072C3.48043 20.8947 3.73478 21.0001 4 21.0001H18C18.2652 21.0001 18.5196 20.8947 18.7071 20.7072C18.8946 20.5196 19 20.2653 19 20.0001V15.0001C19 14.4478 19.4477 14.0001 20 14.0001C20.5523 14.0001 21 14.4478 21 15.0001V20.0001C21 20.7957 20.6839 21.5588 20.1213 22.1214C19.5587 22.684 18.7957 23.0001 18 23.0001H4C3.20435 23.0001 2.44129 22.684 1.87868 22.1214C1.31607 21.5588 1 20.7957 1 20.0001V6.00006C1 5.20441 1.31607 4.44135 1.87868 3.87874Z" fill="#024059"></path>
</svg>