<svg width="24" height="24" viewBox="0 0 24 24" fill="none" xmlns="http://www.w3.org/2000/svg">
<path fill-rule="evenodd" clip-rule="evenodd" d="M3 12C3 7.02944 7.02944 3 12 3C16.9706 3 21 7.02944 21 12C21 16.9706 16.9706 21 12 21C7.02944 21 3 16.9706 3 12ZM12 1C5.92487 1 1 5.92487 1 12C1 18.0751 5.92487 23 12 23C18.0751 23 23 18.0751 23 12C23 5.92487 18.0751 1 12 1ZM18.1616 9.07075C18.5521 8.68023 18.5521 8.04706 18.1616 7.65654C17.7711 7.26602 17.1379 7.26602 16.7474 7.65654L10.1818 14.2222L7.25252 11.2929C6.86199 10.9024 6.22883 10.9024 5.8383 11.2929C5.44778 11.6834 5.44778 12.3166 5.8383 12.7071L9.47467 16.3435C9.86519 16.734 10.4984 16.734 10.8889 16.3435L18.1616 9.07075Z" fill="#024059"></path>
</svg>